<?xml version="1.0" encoding="UTF-8" standalone="no"?>
<!-- Created with Inkscape (http://www.inkscape.org/) -->

<svg
   version="1.1"
   id="svg2"
   width="2829.3333"
   height="2829.3333"
   viewBox="0 0 2829.3333 2829.3333"
   sodipodi:docname="vecteezy_girl-watch-movie_16767931.eps"
   xmlns:inkscape="http://www.inkscape.org/namespaces/inkscape"
   xmlns:sodipodi="http://sodipodi.sourceforge.net/DTD/sodipodi-0.dtd"
   xmlns="http://www.w3.org/2000/svg"
   xmlns:svg="http://www.w3.org/2000/svg">
  <defs
     id="defs6" />
  <sodipodi:namedview
     id="namedview4"
     pagecolor="#ffffff"
     bordercolor="#000000"
     borderopacity="0.25"
     inkscape:showpageshadow="2"
     inkscape:pageopacity="0.0"
     inkscape:pagecheckerboard="0"
     inkscape:deskcolor="#d1d1d1" />
  <g
     id="g8"
     inkscape:groupmode="layer"
     inkscape:label="ink_ext_XXXXXX"
     transform="matrix(1.3333333,0,0,-1.3333333,0,2829.3333)">
    <g
       id="g10"
       transform="scale(0.1)">
      <path
         d="m 16724.3,15173.4 c -435.9,540 -911.6,1023.5 -1421.3,1439.8 -864.8,708.6 -1826.4,1227.2 -2852.2,1512.6 -101.7,133.5 -219.4,254.5 -353.5,358.4 -496.3,384.4 -1149.6,494.4 -1776.2,533.7 -485.15,30.5 -978.28,24.4 -1459.52,-43 -6.03,8.2 -12.29,16.2 -18.87,24.1 -192.72,231.1 -485.99,266.4 -788.75,211.3 -292.62,257.4 -645.87,452.9 -1025.05,542.5 -115,27.2 -232.88,43.9 -351.34,50.2 -438.02,23 -884.22,-98.4 -1224.12,-372.9 -364.59,-294.5 -581.96,-732.9 -742.82,-1173.1 -160.86,-440.2 -277.72,-899.2 -495.18,-1314.3 -55.29,-105.6 -147.42,-223.1 -264.72,-202 270.34,-423.5 654.78,-753.7 1146.27,-877.3 -184.85,-191.4 -363.93,-392.3 -536.8,-602 0.06,0 0.13,0 0.19,-0.1 C 4163.21,14779.5 3798.55,14250.8 3471.3,13681.9 2699.36,12341.4 2135.57,10777.3 1844.17,9074.7 1707.23,8282 1630.38,7459.7 1618.6,6616.2 c -0.04,-2.7 -0.07,-5.4 -0.11,-8.1 -0.06,-4.2 -0.11,-8.3 -0.16,-12.5 -0.91,-69.2 -1.33,-138.5 -1.33,-207.8 0,-325.9 43.42,-636.4 126.67,-930.1 2.61,-9.3 5.28,-18.5 7.98,-27.8 0.49,-1.7 0.99,-3.4 1.5,-5.2 0.51,-1.7 1.02,-3.4 1.53,-5.1 0.41,-1.4 0.84,-2.8 1.25,-4.2 1.46,-4.9 2.92,-9.8 4.4,-14.7 0.84,-2.8 1.69,-5.7 2.55,-8.5 0.19,-0.6 0.37,-1.2 0.55,-1.8 0.09,-0.3 0.19,-0.6 0.28,-0.9 2.4,-7.9 4.83,-15.8 7.29,-23.6 0.74,-2.4 1.49,-4.7 2.24,-7.1 0.68,-2.1 1.38,-4.3 2.07,-6.5 1.49,-4.7 3,-9.4 4.52,-14.1 1.17,-3.6 2.35,-7.3 3.55,-10.9 0.45,-1.4 0.91,-2.8 1.38,-4.3 0.08,-0.2 0.15,-0.4 0.22,-0.7 1.42,-4.3 2.88,-8.6 4.31,-12.9 1.51,-4.5 3.03,-9.1 4.56,-13.6 0.3,-0.9 0.62,-1.8 0.93,-2.7 0.93,-2.8 1.86,-5.5 2.79,-8.2 1.09,-3.2 2.18,-6.4 3.28,-9.6 1.44,-4.2 2.89,-8.3 4.35,-12.5 0.71,-2 1.4,-4 2.11,-6.1 0.14,-0.4 0.28,-0.8 0.42,-1.2 0.88,-2.4 1.76,-4.9 2.64,-7.4 1.53,-4.3 3.06,-8.6 4.61,-12.9 1.03,-2.9 2.08,-5.7 3.12,-8.6 0.56,-1.6 1.13,-3.1 1.71,-4.7 0.4,-1.1 0.82,-2.2 1.23,-3.4 0.09,-0.2 0.17,-0.5 0.26,-0.7 2.34,-6.4 4.7,-12.8 7.08,-19.1 1.59,-4.3 3.2,-8.6 4.81,-12.9 1.83,-4.8 3.65,-9.6 5.49,-14.4 1.45,-3.8 2.9,-7.6 4.36,-11.4 0.64,-1.6 1.27,-3.2 1.9,-4.9 0.25,-0.6 0.5,-1.2 0.75,-1.9 1.94,-5 3.89,-10 5.87,-14.9 1.67,-4.3 3.35,-8.5 5.03,-12.7 0.3,-0.8 0.6,-1.5 0.9,-2.3 0.09,-0.2 0.16,-0.4 0.24,-0.6 1.92,-4.8 3.85,-9.5 5.78,-14.3 1.53,-3.8 3.08,-7.6 4.63,-11.3 0.4,-1 0.8,-2 1.19,-2.9 0.76,-1.9 1.53,-3.8 2.31,-5.6 0.92,-2.3 1.83,-4.5 2.75,-6.7 1.36,-3.3 2.72,-6.5 4.09,-9.7 0.95,-2.3 1.93,-4.6 2.89,-6.9 1.79,-4.2 3.57,-8.4 5.37,-12.6 1.06,-2.5 2.1,-5 3.18,-7.5 1.49,-3.5 2.99,-7 4.5,-10.5 2.22,-5.1 4.45,-10.2 6.69,-15.3 1.4,-3.2 2.81,-6.3 4.22,-9.5 1.71,-3.9 3.45,-7.7 5.18,-11.6 0.96,-2.1 1.93,-4.3 2.9,-6.5 1,-2.2 1.99,-4.4 3,-6.6 1.32,-2.9 2.65,-5.8 3.98,-8.7 1.82,-4.1 3.64,-8.1 5.48,-12.1 0.59,-1.2 1.16,-2.5 1.74,-3.7 0.6,-1.3 1.19,-2.6 1.79,-3.9 1.34,-2.9 2.67,-5.8 4.01,-8.6 2.51,-5.4 5.02,-10.8 7.56,-16.1 1.28,-2.7 2.57,-5.4 3.86,-8.1 3.95,-8.3 7.91,-16.6 11.92,-24.8 0.09,-0.2 0.18,-0.4 0.28,-0.6 0.82,-1.7 1.64,-3.3 2.46,-5 1.08,-2.2 2.15,-4.4 3.23,-6.6 2.71,-5.6 5.44,-11.1 8.19,-16.6 0.48,-0.9 0.97,-1.9 1.44,-2.9 0.05,-0.1 0.08,-0.1 0.13,-0.2 0.72,-1.5 1.44,-2.9 2.16,-4.3 4.39,-8.8 8.84,-17.6 13.31,-26.3 l 0.19,-0.4 c 1.6,-3.1 3.22,-6.2 4.82,-9.3 2.73,-5.3 5.46,-10.6 8.21,-15.9 0.54,-1.1 1.07,-2.1 1.62,-3.2 0.97,-1.8 1.94,-3.7 2.92,-5.5 3.02,-5.8 6.06,-11.5 9.12,-17.3 1.06,-2 2.13,-4 3.19,-6 1.38,-2.5 2.77,-5.1 4.15,-7.6 1.91,-3.6 3.82,-7.1 5.73,-10.6 2.69,-5 5.37,-9.9 8.09,-14.9 1.51,-2.7 3.03,-5.5 4.55,-8.2 2.5,-4.6 4.98,-9.1 7.5,-13.6 1.01,-1.8 2.03,-3.6 3.04,-5.5 3.34,-5.9 6.69,-11.9 10.06,-17.8 0.17,-0.3 0.34,-0.6 0.51,-0.9 6.92,-12.2 13.92,-24.3 20.99,-36.5 0.95,-1.6 1.89,-3.2 2.84,-4.8 3.29,-5.6 6.59,-11.3 9.91,-16.9 1.18,-2 2.38,-4 3.57,-6 10.76,-18 21.67,-36 32.75,-53.9 1.02,-1.7 2.03,-3.3 3.05,-4.9 3.63,-5.9 7.28,-11.7 10.96,-17.6 0.63,-1 1.29,-2 1.93,-3 7.32,-11.7 14.71,-23.3 22.17,-34.8 0.73,-1.1 1.45,-2.2 2.17,-3.4 3.59,-5.5 7.19,-11 10.81,-16.6 1.3,-2 2.61,-4 3.93,-6 11.61,-17.6 23.37,-35.2 35.3,-52.7 1.13,-1.6 2.25,-3.3 3.38,-4.9 3.81,-5.6 7.64,-11.2 11.48,-16.7 1.11,-1.6 2.23,-3.2 3.34,-4.9 12.17,-17.5 24.5,-35 37,-52.3 1.24,-1.8 2.48,-3.5 3.72,-5.2 3.95,-5.5 7.91,-11 11.9,-16.4 0.77,-1.1 1.54,-2.1 2.31,-3.2 7.86,-10.8 15.79,-21.5 23.76,-32.2 1.22,-1.6 2.43,-3.2 3.63,-4.9 3.96,-5.2 7.93,-10.5 11.93,-15.8 1.53,-2 3.07,-4 4.6,-6.1 12.55,-16.5 25.25,-33 38.1,-49.4 1.76,-2.2 3.52,-4.4 5.29,-6.7 3.9,-4.9 7.81,-9.9 11.74,-14.8 1.61,-2.1 3.25,-4.1 4.87,-6.1 7.46,-9.4 14.97,-18.7 22.52,-28 1.61,-2 3.21,-4 4.81,-5.9 3.9,-4.8 7.83,-9.6 11.75,-14.4 2.09,-2.5 4.2,-5.1 6.3,-7.6 12.66,-15.3 25.44,-30.6 38.35,-45.8 2.51,-2.9 5.02,-5.8 7.53,-8.8 3.77,-4.4 7.56,-8.8 11.36,-13.2 2.35,-2.7 4.71,-5.5 7.08,-8.2 7.1,-8.2 14.24,-16.4 21.43,-24.5 2.07,-2.4 4.12,-4.7 6.2,-7.1 3.95,-4.5 7.92,-8.9 11.89,-13.4 2.49,-2.8 4.99,-5.6 7.49,-8.4 3.89,-4.3 7.79,-8.6 11.71,-13 2.25,-2.5 4.53,-5 6.79,-7.5 7.31,-8 14.65,-16.1 22.04,-24.1 2.4,-2.6 4.79,-5.2 7.2,-7.8 4.03,-4.4 8.06,-8.7 12.11,-13 2.52,-2.7 5.05,-5.4 7.58,-8.1 7.96,-8.5 15.96,-17 23.99,-25.5 1.72,-1.8 3.43,-3.6 5.15,-5.4 4.07,-4.2 8.17,-8.5 12.26,-12.8 2.74,-2.8 5.47,-5.6 8.21,-8.5 4.02,-4.1 8.06,-8.3 12.11,-12.4 2.84,-3 5.7,-5.9 8.55,-8.8 6.73,-6.9 13.48,-13.7 20.26,-20.6 3.27,-3.2 6.52,-6.5 9.8,-9.8 3.78,-3.8 7.58,-7.6 11.38,-11.4 3.22,-3.2 6.45,-6.4 9.69,-9.6 3.96,-3.9 7.92,-7.8 11.89,-11.7 1.54,-1.6 3.09,-3.1 4.62,-4.6 8.52,-8.3 17.07,-16.6 25.67,-24.9 3.06,-3 6.11,-5.9 9.17,-8.9 4.14,-4 8.29,-8 12.46,-11.9 2.91,-2.8 5.84,-5.6 8.76,-8.3 7.51,-7.2 15.07,-14.3 22.65,-21.4 2.81,-2.7 5.62,-5.3 8.45,-7.9 4.31,-4.1 8.64,-8.1 12.97,-12.1 3.09,-2.8 6.18,-5.7 9.28,-8.6 4.24,-3.9 8.47,-7.8 12.72,-11.7 3.05,-2.8 6.11,-5.5 9.16,-8.3 7.46,-6.8 14.94,-13.6 22.45,-20.3 3.29,-3 6.58,-6 9.89,-8.9 4.19,-3.8 8.39,-7.5 12.61,-11.3 3.24,-2.8 6.49,-5.7 9.74,-8.6 7.73,-6.8 15.47,-13.7 23.26,-20.5 3.03,-2.6 6.05,-5.3 9.09,-7.9 4.54,-4 9.1,-7.9 13.66,-11.8 2.89,-2.5 5.77,-5 8.66,-7.5 4.91,-4.2 9.84,-8.5 14.77,-12.7 1.91,-1.6 3.82,-3.2 5.72,-4.8 9.03,-7.7 18.1,-15.4 27.2,-23 3.09,-2.6 6.17,-5.2 9.28,-7.8 4.58,-3.9 9.18,-7.7 13.78,-11.5 3.08,-2.6 6.17,-5.1 9.25,-7.7 16.33,-13.5 32.79,-26.9 49.36,-40.3 2.65,-2.2 5.29,-4.3 7.94,-6.4 5.13,-4.2 10.26,-8.3 15.42,-12.4 2.34,-1.9 4.7,-3.7 7.05,-5.6 10.3,-8.2 20.64,-16.4 31.03,-24.5 1.74,-1.4 3.48,-2.8 5.23,-4.1 5.46,-4.3 10.96,-8.6 16.46,-12.9 2.27,-1.7 4.55,-3.5 6.83,-5.3 18.25,-14.1 36.62,-28.2 55.12,-42.1 1.69,-1.3 3.39,-2.6 5.08,-3.9 5.84,-4.4 11.7,-8.8 17.56,-13.2 1.8,-1.3 3.59,-2.6 5.39,-4 19.26,-14.4 38.65,-28.6 58.17,-42.9 0.94,-0.6 1.88,-1.3 2.83,-2 12.98,-9.5 26.04,-18.8 39.14,-28.2 5.02,-3.6 10.07,-7.2 15.1,-10.7 8.25,-5.9 16.51,-11.8 24.81,-17.6 5.83,-4.1 11.7,-8.2 17.55,-12.3 7.33,-5.1 14.65,-10.2 22.02,-15.3 6.63,-4.6 13.3,-9.1 19.97,-13.7 6.8,-4.7 13.59,-9.3 20.42,-14 6.74,-4.6 13.52,-9.1 20.29,-13.7 6.76,-4.6 13.52,-9.1 20.31,-13.7 7.22,-4.8 14.46,-9.6 21.73,-14.4 6,-4 12.02,-8 18.05,-12 7.97,-5.2 15.95,-10.5 23.96,-15.7 5.51,-3.6 11.04,-7.2 16.57,-10.7 8.42,-5.5 16.86,-11 25.32,-16.4 4.91,-3.2 9.85,-6.3 14.77,-9.4 9.22,-5.9 18.45,-11.8 27.72,-17.7 3.76,-2.3 7.55,-4.7 11.34,-7.1 10.26,-6.4 20.53,-12.9 30.85,-19.3 2.16,-1.3 4.33,-2.7 6.48,-4 13.63,-8.5 27.33,-16.9 41.07,-25.2 3.47,-2.2 6.96,-4.3 10.44,-6.4 11.01,-6.7 22.06,-13.4 33.14,-20 2.93,-1.8 5.85,-3.5 8.78,-5.3 13.64,-8.2 27.31,-16.3 41.04,-24.4 0.19,-0.1 0.39,-0.2 0.58,-0.3 30.11,-17.8 60.47,-35.4 91.04,-52.8 0.43,-0.3 0.84,-0.5 1.27,-0.8 11.72,-6.7 23.49,-13.3 35.29,-20 1.44,-0.8 2.89,-1.6 4.34,-2.4 10.69,-6 21.41,-12 32.16,-18 0.88,-0.5 1.76,-1 2.65,-1.4 1246.86,-692.8 2860.14,-1134.1 4573.88,-1324 0.52,0 1.05,-0.1 1.58,-0.1 43.33,-4.8 86.73,-9.5 130.18,-13.9 1.67,-0.2 3.33,-0.4 5,-0.6 21.28,-2.1 42.57,-4.3 63.87,-6.4 0.03,0 0.07,0 0.1,0 20.21,-2 40.43,-4 60.67,-5.9 4.39,-0.4 8.78,-0.8 13.18,-1.2 19.98,-1.9 39.96,-3.8 59.96,-5.6 0.44,-0.1 0.87,-0.1 1.29,-0.1 48.83,-4.5 97.71,-8.7 146.67,-12.8 2.2,-0.2 4.39,-0.3 6.6,-0.5 47.48,-3.9 95.02,-7.6 142.6,-11.2 3.45,-0.2 6.91,-0.5 10.36,-0.7 46.3,-3.4 92.64,-6.7 139.03,-9.7 4.91,-0.3 9.83,-0.6 14.74,-1 22.81,-1.4 45.63,-2.9 68.45,-4.3 0.37,0 0.75,0 1.11,0 47.33,-2.9 94.69,-5.6 142.09,-8.1 1.18,-0.1 2.33,-0.2 3.5,-0.2 14.88,-0.8 29.78,-1.6 44.67,-2.3 2.66,-0.1 5.31,-0.3 7.97,-0.4 42.91,-2.1 85.85,-4.1 128.82,-6 5.65,-0.2 11.29,-0.4 16.94,-0.7 12.73,-0.5 25.47,-1 38.22,-1.5 5.45,-0.2 10.89,-0.5 16.35,-0.7 27.11,-1 54.23,-2 81.36,-2.9 1.51,-0.1 3.01,-0.1 4.52,-0.2 11,-0.4 22.04,-0.7 33.04,-1.1 8.2,-0.2 16.4,-0.5 24.6,-0.8 10.8,-0.3 21.5,-0.6 32.3,-0.9 8.5,-0.3 17.1,-0.5 25.6,-0.7 15,-0.5 29.9,-0.9 44.8,-1.2 12.1,-0.3 24.1,-0.6 36.1,-0.9 9.7,-0.2 19.4,-0.4 29.1,-0.6 10.2,-0.3 20.4,-0.5 30.5,-0.7 9,-0.2 17.9,-0.3 26.9,-0.5 11.2,-0.2 22.5,-0.4 33.7,-0.6 11.5,-0.2 23.1,-0.4 34.7,-0.5 14.1,-0.2 28.3,-0.4 42.4,-0.6 8.6,-0.1 17.2,-0.2 25.8,-0.3 11.1,-0.1 22.1,-0.2 33.2,-0.3 8.4,-0.1 16.8,-0.2 25.1,-0.2 15.2,-0.2 30.3,-0.3 45.5,-0.3 3.9,-0.1 7.8,-0.1 11.8,-0.1 19.1,-0.1 38.2,-0.1 57.3,-0.2 6.1,0 12.2,0 18.3,0 13.9,0 27.9,0 41.8,0 6.6,0 13.1,0.1 19.7,0.1 19.3,0 38.6,0.1 57.9,0.2 0.9,0 1.9,0 2.9,0 15.7,0.1 31.5,0.3 47.3,0.4 1.6,0 3.2,0 4.8,0 15.7,0.2 31.5,0.3 47.3,0.5 0.9,0 1.7,0 2.6,0.1 16.1,0.1 32.1,0.4 48.2,0.6 1.1,0 2.1,0 3.2,0 15.8,0.3 31.6,0.5 47.4,0.8 1.3,0 2.6,0 3.9,0.1 16.1,0.2 32.3,0.5 48.4,0.9 0.7,0 1.4,0 2.1,0 42.6,0.9 85.2,1.9 127.8,3 42.6,1.2 85.2,2.5 127.7,3.9 0.3,0.1 0.6,0.1 0.9,0.1 16.2,0.5 32.5,1.1 48.7,1.7 2.4,0.1 4.9,0.2 7.3,0.3 13.8,0.5 27.6,1 41.4,1.6 4.2,0.1 8.4,0.3 12.6,0.5 12.7,0.5 25.4,1 38.1,1.6 3.7,0.1 7.4,0.3 11.1,0.4 13.3,0.6 26.6,1.2 39.9,1.8 3.4,0.2 6.7,0.3 10,0.5 13.2,0.6 26.3,1.2 39.5,1.8 4,0.2 8,0.4 12,0.6 12.2,0.6 24.2,1.2 36.4,1.8 4.9,0.2 9.8,0.5 14.7,0.7 12.4,0.7 24.8,1.3 37.2,2 2.8,0.2 5.6,0.3 8.4,0.4 1.1,0.1 2.2,0.2 3.3,0.2 11.7,0.7 23.3,1.3 34.9,2 5.5,0.3 11,0.6 16.4,0.9 8.1,0.4 16.1,0.9 24.1,1.4 9.2,0.5 18.4,1.1 27.5,1.6 2.4,0.1 4.7,0.3 7,0.4 1664.3,100.4 3277.6,431 4607.2,991.6 0.7,0.3 1.4,0.6 2.2,0.9 11.7,4.9 23.3,9.9 34.9,14.8 1.2,0.5 2.4,1 3.5,1.5 11.4,4.9 22.8,9.8 34.2,14.7 1.2,0.5 2.4,1 3.5,1.5 11.1,4.8 22.2,9.6 33.3,14.4 2,0.9 4,1.8 6.1,2.7 10.5,4.6 20.9,9.2 31.4,13.8 2.1,1 4.2,1.9 6.4,2.9 10.1,4.5 20.3,9 30.4,13.5 3.2,1.4 6.3,2.8 9.4,4.2 9.3,4.2 18.5,8.3 27.7,12.5 4.1,1.8 8.2,3.7 12.2,5.5 8.4,3.8 16.8,7.6 25.1,11.4 6.1,2.8 12.2,5.7 18.3,8.5 6.2,2.8 12.5,5.7 18.7,8.6 12.5,5.8 25,11.6 37.5,17.5 2,0.9 4,1.8 6,2.8 10.8,5 21.5,10.1 32.3,15.2 2,1 4,1.9 6,2.9 10.5,5 21,10 31.5,15 2.7,1.4 5.5,2.7 8.2,4 10,4.8 20,9.6 29.9,14.5 2.2,1 4.3,2.1 6.5,3.1 10.6,5.2 21.1,10.4 31.6,15.5 l 5.1,2.5 c 10.9,5.4 21.7,10.8 32.5,16.1 1.7,0.9 3.4,1.7 5.1,2.6 11,5.5 22,11 32.9,16.6 1.1,0.5 2.2,1.1 3.3,1.6 11.8,6 23.6,12 35.4,18 0.2,0.1 0.4,0.2 0.6,0.3 16.1,8.3 32.1,16.6 48.1,24.9 1.5,0.8 3,1.6 4.6,2.3 15.7,8.2 31.3,16.5 47,24.7 1.4,0.8 2.9,1.6 4.4,2.4 15.9,8.4 31.8,16.9 47.7,25.5 0.4,0.2 0.8,0.4 1.3,0.7 10.1,5.4 20.2,10.9 30.2,16.4 1.4,0.7 2.7,1.4 4,2.2 8.5,4.6 17,9.3 25.5,13.9 2.2,1.2 4.3,2.4 6.4,3.6 8.2,4.5 16.4,9 24.6,13.6 1.5,0.8 3,1.6 4.5,2.5 9,5 18,10 26.9,15.1 0.9,0.5 1.7,0.9 2.6,1.4 9.6,5.4 19.2,10.9 28.7,16.3 2,1.1 4,2.3 6,3.4 7.6,4.4 15.3,8.7 22.9,13.1 2.3,1.4 4.7,2.7 7,4.1 7.2,4.1 14.4,8.3 21.6,12.5 2.4,1.4 4.9,2.8 7.3,4.2 8.6,5 17.2,10.1 25.8,15.1 0.4,0.2 0.8,0.5 1.2,0.7 0.2,0.1 0.3,0.2 0.4,0.2 7.5,4.5 15,8.9 22.5,13.3 0.3,0.2 0.7,0.5 1.1,0.7 1002.8,595 1744.7,1362.9 2074,2303.6 l 0.3,0.6 c 2.5,7.3 5,14.6 7.5,21.8 0.3,0.9 0.6,1.8 0.9,2.6 2.3,6.9 4.7,13.8 7,20.7 0.4,1.3 0.8,2.6 1.2,3.8 2.2,6.5 4.4,13 6.5,19.5 0.7,2.3 1.5,4.6 2.2,7 1.8,5.6 3.6,11.2 5.4,16.8 2.6,8 5.1,16 7.6,24.1 0.9,3.1 1.9,6.2 2.9,9.3 1.5,5.1 3.1,10.2 4.6,15.3 1.5,4.9 2.9,9.8 4.4,14.7 1.2,4.1 2.4,8.2 3.6,12.3 2.7,9.2 5.3,18.4 7.9,27.6 83.3,293.7 126.7,604.2 126.7,930.1 0,3470.1 -1105,6595.9 -2871.9,8785.6"
         style="fill:#321132;fill-opacity:1;fill-rule:nonzero;stroke:none"
         id="path12" />
      <path
         d="m 17210.9,5457.7 611.2,2576.3 c 73.2,308.9 -161.2,605 -478.3,605 h -289.9 c -3.6,0.1 -7.2,0.1 -10.9,0.1 h -2558.8 c -154,184.4 -366.5,337.8 -548,479.7 -414.9,324.4 -794.5,693.9 -1130.1,1099.7 -294.7,356.3 -415.5,842.9 -757.4,1164.4 -138.5,130.3 -314.6,215 -496.3,271.2 -45.8,14.2 -92.7,26.4 -140.2,36.4 -123.1,74.3 -252.6,138 -385.9,192 -24,9.9 -48,19.1 -72.5,27.6 -51.1,19.2 -102.5,37.4 -154.5,54.1 134.4,26.6 265.4,66.6 390.1,123.3 533.5,242 930.1,733.8 1050.9,1307.7 50.9,242.9 59.2,479.8 50.7,717.6 116.3,181.8 209.2,378.2 278.9,573.5 229.6,643.6 409.9,1319 375.8,2001.4 -25.6,513.1 -186.9,1033.5 -494.9,1438.1 -101.7,133.5 -219.4,254.5 -353.5,358.4 -496.3,384.4 -1149.6,494.4 -1776.2,533.7 -485.15,30.5 -978.28,24.4 -1459.52,-43 -6.03,8.2 -12.29,16.2 -18.87,24.1 -192.72,231.1 -485.99,266.4 -788.75,211.3 -292.62,257.4 -645.87,452.9 -1025.05,542.5 -115,27.2 -232.88,43.9 -351.34,50.2 -438.02,23 -884.22,-98.4 -1224.12,-372.9 -364.59,-294.5 -581.96,-732.9 -742.82,-1173.1 -160.86,-440.2 -277.72,-899.2 -495.18,-1314.3 -55.29,-105.6 -147.42,-223.1 -264.72,-202 270.34,-423.5 654.78,-753.7 1146.27,-877.3 -184.85,-191.4 -363.93,-392.3 -536.8,-602 0.06,0 0.13,0 0.19,-0.1 130.8,-64.7 287.72,-82 430.97,-120.6 372.88,-100.5 693.44,-376.5 849.25,-729.1 -105.26,-661.3 51.15,-1360.7 427.6,-1913.8 22.6,-33.3 -873.63,-1298.8 -951.53,-1445.7 C 4994.94,10448.5 4927.15,9656.3 4380.6,9185.9 3958.36,8821.9 3663.98,8559.1 3523.03,7984 3423.72,7581.4 3389.82,7160.9 3382.09,6745.8 H 1621.16 c -1.08,-43.1 -1.92,-86.3 -2.56,-129.6 -0.04,-2.7 -0.07,-5.4 -0.11,-8.1 -0.06,-4.2 -0.11,-8.3 -0.16,-12.5 -0.91,-69.2 -1.33,-138.5 -1.33,-207.8 0,-325.9 43.42,-636.4 126.67,-930.1 2.61,-9.3 5.28,-18.5 7.98,-27.8 0.22,-0.7 0.43,-1.5 0.65,-2.2 0.29,-1 0.56,-2 0.85,-3 0.51,-1.7 1.02,-3.4 1.53,-5.1 0.41,-1.4 0.84,-2.8 1.25,-4.2 1.46,-4.9 2.92,-9.8 4.4,-14.7 0.84,-2.8 1.69,-5.7 2.55,-8.5 0.19,-0.6 0.37,-1.2 0.55,-1.8 0.09,-0.3 0.19,-0.6 0.28,-0.9 2.4,-7.9 4.83,-15.8 7.29,-23.6 0.64,-2.1 1.3,-4.1 1.95,-6.1 0.09,-0.3 0.19,-0.7 0.29,-1 0.68,-2.1 1.38,-4.3 2.07,-6.5 1.49,-4.7 3,-9.4 4.52,-14.1 1.17,-3.6 2.35,-7.3 3.55,-10.9 0.45,-1.4 0.91,-2.8 1.38,-4.3 0.08,-0.2 0.15,-0.4 0.22,-0.7 1.42,-4.3 2.88,-8.6 4.31,-12.9 1.51,-4.5 3.03,-9.1 4.56,-13.6 0.3,-0.9 0.62,-1.8 0.93,-2.7 0.93,-2.8 1.86,-5.5 2.79,-8.2 1.09,-3.2 2.18,-6.4 3.28,-9.6 1.44,-4.2 2.89,-8.3 4.35,-12.5 0.71,-2 1.4,-4 2.11,-6.1 0.14,-0.4 0.28,-0.8 0.42,-1.2 0.88,-2.4 1.76,-4.9 2.64,-7.4 1.53,-4.3 3.06,-8.6 4.61,-12.9 1.03,-2.9 2.08,-5.7 3.12,-8.6 0.56,-1.6 1.13,-3.1 1.71,-4.7 0.4,-1.1 0.82,-2.2 1.23,-3.4 0.09,-0.2 0.17,-0.5 0.26,-0.7 2.34,-6.4 4.7,-12.8 7.08,-19.1 1.59,-4.3 3.2,-8.6 4.81,-12.9 1.83,-4.8 3.65,-9.6 5.49,-14.4 1.45,-3.8 2.9,-7.6 4.36,-11.4 0.64,-1.6 1.27,-3.2 1.9,-4.9 0.25,-0.6 0.5,-1.2 0.75,-1.9 1.94,-5 3.89,-10 5.87,-14.9 1.67,-4.3 3.35,-8.5 5.03,-12.7 0.3,-0.8 0.6,-1.5 0.9,-2.3 0.09,-0.2 0.16,-0.4 0.24,-0.6 1.92,-4.8 3.85,-9.5 5.78,-14.3 1.53,-3.8 3.08,-7.6 4.63,-11.3 0.4,-1 0.8,-2 1.19,-2.9 0.76,-1.9 1.53,-3.8 2.31,-5.6 0.92,-2.3 1.83,-4.5 2.75,-6.7 1.36,-3.3 2.72,-6.5 4.09,-9.7 0.95,-2.3 1.93,-4.6 2.89,-6.9 1.79,-4.2 3.57,-8.4 5.37,-12.6 1.06,-2.5 2.1,-5 3.18,-7.5 1.49,-3.5 2.99,-7 4.5,-10.5 0.81,-1.8 1.63,-3.7 2.44,-5.5 0.74,-1.7 1.48,-3.4 2.23,-5.1 0.68,-1.6 1.35,-3.1 2.02,-4.7 1.4,-3.2 2.81,-6.3 4.22,-9.5 1.71,-3.9 3.45,-7.7 5.18,-11.6 0.96,-2.1 1.93,-4.3 2.9,-6.5 1,-2.2 1.99,-4.4 3,-6.6 1.32,-2.9 2.65,-5.8 3.98,-8.7 1.82,-4.1 3.64,-8.1 5.48,-12.1 0.59,-1.2 1.16,-2.5 1.74,-3.7 0.6,-1.3 1.19,-2.6 1.79,-3.9 1.34,-2.9 2.67,-5.8 4.01,-8.6 2.51,-5.4 5.02,-10.8 7.56,-16.1 1.28,-2.7 2.57,-5.4 3.86,-8.1 3.78,-8 7.59,-15.9 11.43,-23.8 0.17,-0.3 0.33,-0.7 0.49,-1 0.09,-0.2 0.18,-0.4 0.28,-0.6 0.15,-0.3 0.31,-0.6 0.47,-0.9 0.67,-1.4 1.33,-2.8 1.99,-4.1 1.08,-2.2 2.15,-4.4 3.23,-6.6 2.71,-5.6 5.44,-11.1 8.19,-16.6 0.48,-0.9 0.97,-1.9 1.44,-2.9 0.05,-0.1 0.08,-0.1 0.13,-0.2 0.72,-1.5 1.44,-2.9 2.16,-4.3 4.39,-8.8 8.84,-17.6 13.31,-26.3 l 0.19,-0.4 0.51,-1 c 1.42,-2.8 2.87,-5.6 4.31,-8.3 2.73,-5.3 5.46,-10.6 8.21,-15.9 0.01,0 0.03,-0.1 0.04,-0.1 0.53,-1 1.05,-2 1.58,-3.1 0.97,-1.8 1.94,-3.7 2.92,-5.5 3.02,-5.8 6.06,-11.5 9.12,-17.3 1.06,-2 2.13,-4 3.19,-6 1.38,-2.5 2.77,-5.1 4.15,-7.6 1.91,-3.6 3.82,-7.1 5.73,-10.6 2.69,-5 5.37,-9.9 8.09,-14.9 1.51,-2.7 3.03,-5.5 4.55,-8.2 2.5,-4.6 4.98,-9.1 7.5,-13.6 1.01,-1.8 2.03,-3.6 3.04,-5.5 3.34,-5.9 6.69,-11.9 10.06,-17.8 0.17,-0.3 0.34,-0.6 0.51,-0.9 6.92,-12.2 13.92,-24.3 20.99,-36.5 0.95,-1.6 1.89,-3.2 2.84,-4.8 3.29,-5.6 6.59,-11.3 9.91,-16.9 1.18,-2 2.38,-4 3.57,-6 10.76,-18 21.67,-36 32.75,-53.9 1.02,-1.7 2.03,-3.3 3.05,-4.9 3.63,-5.9 7.28,-11.7 10.96,-17.6 0.63,-1 1.29,-2 1.93,-3 7.32,-11.7 14.71,-23.3 22.17,-34.8 0.73,-1.1 1.45,-2.2 2.17,-3.4 3.59,-5.5 7.19,-11 10.81,-16.6 1.3,-2 2.61,-4 3.93,-6 11.61,-17.6 23.37,-35.2 35.3,-52.7 1.13,-1.6 2.25,-3.3 3.38,-4.9 3.81,-5.6 7.64,-11.2 11.48,-16.7 1.11,-1.6 2.23,-3.2 3.34,-4.9 12.17,-17.5 24.5,-35 37,-52.3 1.24,-1.8 2.48,-3.5 3.72,-5.2 3.95,-5.5 7.91,-11 11.9,-16.4 0.77,-1.1 1.54,-2.1 2.31,-3.2 7.86,-10.8 15.79,-21.5 23.76,-32.2 1.22,-1.6 2.43,-3.2 3.63,-4.9 3.96,-5.2 7.93,-10.5 11.93,-15.8 1.53,-2 3.07,-4 4.6,-6.1 12.55,-16.5 25.25,-33 38.1,-49.4 1.76,-2.2 3.52,-4.4 5.29,-6.7 3.9,-4.9 7.81,-9.9 11.74,-14.8 1.61,-2.1 3.25,-4.1 4.87,-6.1 7.46,-9.4 14.97,-18.7 22.52,-28 1.61,-2 3.21,-4 4.81,-5.9 3.9,-4.8 7.83,-9.6 11.75,-14.4 2.09,-2.5 4.2,-5.1 6.3,-7.6 12.66,-15.3 25.44,-30.6 38.35,-45.8 2.51,-2.9 5.02,-5.8 7.53,-8.8 3.77,-4.4 7.56,-8.8 11.36,-13.2 2.35,-2.7 4.71,-5.5 7.08,-8.2 7.1,-8.2 14.24,-16.4 21.43,-24.5 2.07,-2.4 4.12,-4.7 6.2,-7.1 3.95,-4.5 7.92,-8.9 11.89,-13.4 2.49,-2.8 4.99,-5.6 7.49,-8.4 3.89,-4.3 7.79,-8.6 11.71,-13 2.25,-2.5 4.53,-5 6.79,-7.5 7.31,-8 14.65,-16.1 22.04,-24.1 2.4,-2.6 4.79,-5.2 7.2,-7.8 4.03,-4.4 8.06,-8.7 12.11,-13 2.52,-2.7 5.05,-5.4 7.58,-8.1 7.96,-8.5 15.96,-17 23.99,-25.5 1.72,-1.8 3.43,-3.6 5.15,-5.4 4.07,-4.2 8.17,-8.5 12.26,-12.8 2.74,-2.8 5.47,-5.6 8.21,-8.5 4.02,-4.1 8.06,-8.3 12.11,-12.4 2.84,-3 5.7,-5.9 8.55,-8.8 6.73,-6.9 13.48,-13.7 20.26,-20.6 3.27,-3.2 6.52,-6.5 9.8,-9.8 3.78,-3.8 7.58,-7.6 11.38,-11.4 3.22,-3.2 6.45,-6.4 9.69,-9.6 3.96,-3.9 7.92,-7.8 11.89,-11.7 1.54,-1.6 3.09,-3.1 4.62,-4.6 8.52,-8.3 17.07,-16.6 25.67,-24.9 3.06,-3 6.11,-5.9 9.17,-8.9 4.14,-4 8.29,-8 12.46,-11.9 2.91,-2.8 5.84,-5.6 8.76,-8.3 7.51,-7.2 15.07,-14.3 22.65,-21.4 2.81,-2.7 5.62,-5.3 8.45,-7.9 4.31,-4.1 8.64,-8.1 12.97,-12.1 3.09,-2.8 6.18,-5.7 9.28,-8.6 4.24,-3.9 8.47,-7.8 12.72,-11.7 3.05,-2.8 6.11,-5.5 9.16,-8.3 7.46,-6.8 14.94,-13.6 22.45,-20.3 3.29,-3 6.58,-6 9.89,-8.9 4.19,-3.8 8.39,-7.5 12.61,-11.3 3.24,-2.8 6.49,-5.7 9.74,-8.6 7.73,-6.8 15.47,-13.7 23.26,-20.5 3.03,-2.6 6.05,-5.3 9.09,-7.9 4.54,-4 9.1,-7.9 13.66,-11.8 2.89,-2.5 5.77,-5 8.66,-7.5 4.91,-4.2 9.84,-8.5 14.77,-12.7 1.91,-1.6 3.82,-3.2 5.72,-4.8 9.03,-7.7 18.1,-15.4 27.2,-23 3.09,-2.6 6.17,-5.2 9.28,-7.8 4.58,-3.9 9.18,-7.7 13.78,-11.5 3.08,-2.6 6.17,-5.1 9.25,-7.7 16.33,-13.5 32.79,-26.9 49.36,-40.3 2.65,-2.2 5.29,-4.3 7.94,-6.4 5.13,-4.2 10.26,-8.3 15.42,-12.4 2.34,-1.9 4.7,-3.7 7.05,-5.6 10.3,-8.2 20.64,-16.4 31.03,-24.5 1.74,-1.4 3.48,-2.8 5.23,-4.1 5.46,-4.3 10.96,-8.6 16.46,-12.9 2.27,-1.7 4.55,-3.5 6.83,-5.3 18.25,-14.1 36.62,-28.2 55.12,-42.1 1.69,-1.3 3.39,-2.6 5.08,-3.9 5.84,-4.4 11.7,-8.8 17.56,-13.2 1.8,-1.3 3.59,-2.6 5.39,-4 19.26,-14.4 38.64,-28.6 58.17,-42.9 0.94,-0.6 1.88,-1.3 2.83,-2 12.98,-9.5 26.04,-18.8 39.14,-28.2 5.02,-3.6 10.07,-7.2 15.1,-10.7 8.25,-5.9 16.51,-11.8 24.81,-17.6 5.83,-4.1 11.7,-8.2 17.55,-12.3 7.33,-5.1 14.65,-10.2 22.02,-15.3 6.63,-4.6 13.3,-9.1 19.97,-13.7 6.8,-4.7 13.59,-9.3 20.42,-14 6.74,-4.6 13.52,-9.1 20.29,-13.7 6.76,-4.6 13.52,-9.1 20.31,-13.7 7.22,-4.8 14.46,-9.6 21.73,-14.4 6,-4 12.02,-8 18.05,-12 7.97,-5.2 15.95,-10.5 23.96,-15.7 5.51,-3.6 11.04,-7.2 16.57,-10.7 8.42,-5.5 16.86,-11 25.32,-16.4 4.91,-3.2 9.85,-6.3 14.77,-9.4 9.22,-5.9 18.45,-11.8 27.72,-17.7 3.76,-2.3 7.55,-4.7 11.34,-7.1 10.26,-6.4 20.53,-12.9 30.85,-19.3 2.16,-1.3 4.33,-2.7 6.48,-4 131,-81.2 266.79,-159.3 406.94,-234.3 0.1,-0.1 0.19,-0.1 0.29,-0.2 19.77,-10.6 39.64,-21.1 59.59,-31.6 5.16,-2.7 10.34,-5.4 15.52,-8.1 4.34,-2.3 8.7,-4.5 13.05,-6.8 9.37,-4.9 18.75,-9.7 28.16,-14.6 4.78,-2.4 9.57,-4.9 14.35,-7.3 10.86,-5.6 21.72,-11.1 32.61,-16.7 9.11,-4.6 18.24,-9.2 27.38,-13.8 6.69,-3.3 13.38,-6.7 20.08,-10 11.31,-5.7 22.61,-11.3 33.96,-16.9 4.23,-2.1 8.48,-4.1 12.72,-6.2 12.98,-6.4 25.99,-12.7 39.04,-19.1 2.23,-1.1 4.48,-2.1 6.72,-3.2 14.96,-7.3 29.96,-14.5 45.02,-21.7 0.58,-0.2 1.18,-0.5 1.77,-0.8 25.65,-12.2 51.43,-24.4 77.34,-36.4 6.05,-2.8 12.11,-5.6 18.18,-8.4 6.29,-2.9 12.56,-5.8 18.86,-8.7 11.43,-5.3 22.91,-10.5 34.39,-15.7 4.7,-2.2 9.41,-4.3 14.11,-6.4 13.03,-5.9 26.07,-11.8 39.16,-17.6 0.78,-0.4 1.57,-0.7 2.36,-1.1 12.05,-5.3 24.11,-10.7 36.21,-16 1.12,-0.5 2.23,-1 3.35,-1.5 11.39,-5 22.8,-10 34.24,-15 4.61,-2 9.23,-4 13.85,-6 6.39,-2.8 12.79,-5.6 19.18,-8.3 12.7,-5.5 25.41,-10.9 38.16,-16.4 1.91,-0.8 3.82,-1.6 5.73,-2.4 8.18,-3.5 16.38,-7 24.58,-10.4 1.63,-0.7 3.26,-1.4 4.89,-2.1 11.65,-4.9 23.33,-9.8 35.02,-14.7 9.22,-3.8 18.45,-7.6 27.7,-11.5 2.13,-0.8 4.26,-1.7 6.4,-2.6 11.04,-4.6 22.1,-9.1 33.17,-13.6 0.04,0 0.08,-0.1 0.11,-0.1 1307.34,-533.8 2877.32,-850.1 4495.77,-948.8 0.37,0 0.75,0 1.11,0 47.33,-2.9 94.69,-5.6 142.09,-8.1 1.18,-0.1 2.33,-0.2 3.5,-0.2 14.88,-0.8 29.78,-1.6 44.67,-2.3 2.66,-0.1 5.31,-0.3 7.97,-0.4 42.91,-2.1 85.85,-4.1 128.82,-6 5.65,-0.2 11.29,-0.4 16.94,-0.7 12.73,-0.5 25.47,-1 38.22,-1.5 5.45,-0.2 10.89,-0.5 16.35,-0.7 27.11,-1 54.23,-2 81.36,-2.9 1.51,-0.1 3.01,-0.1 4.52,-0.2 11,-0.4 22.04,-0.7 33.04,-1.1 8.2,-0.2 16.4,-0.5 24.6,-0.8 10.8,-0.3 21.5,-0.6 32.3,-0.9 8.5,-0.3 17.1,-0.5 25.6,-0.7 15,-0.5 29.9,-0.9 44.8,-1.2 12.1,-0.3 24.1,-0.6 36.1,-0.9 9.7,-0.2 19.4,-0.4 29.1,-0.6 10.2,-0.3 20.4,-0.5 30.5,-0.7 9,-0.2 17.9,-0.3 26.9,-0.5 11.2,-0.2 22.5,-0.4 33.7,-0.6 11.5,-0.2 23.1,-0.4 34.7,-0.5 14.1,-0.2 28.3,-0.4 42.4,-0.6 8.6,-0.1 17.2,-0.2 25.8,-0.3 11.1,-0.1 22.1,-0.2 33.2,-0.3 8.4,-0.1 16.8,-0.2 25.1,-0.2 15.2,-0.2 30.3,-0.3 45.5,-0.3 3.9,-0.1 7.8,-0.1 11.8,-0.1 19.1,-0.1 38.2,-0.1 57.3,-0.2 6.1,0 12.2,0 18.3,0 13.9,0 27.9,0 41.8,0 6.6,0 13.1,0.1 19.7,0.1 19.3,0 38.6,0.1 57.9,0.2 0.9,0 1.9,0 2.9,0 15.7,0.1 31.5,0.3 47.3,0.4 1.6,0 3.2,0 4.8,0 15.7,0.2 31.5,0.3 47.3,0.5 0.9,0 1.7,0 2.6,0.1 16.1,0.1 32.1,0.4 48.2,0.6 1.1,0 2.1,0 3.2,0 15.8,0.3 31.6,0.5 47.4,0.8 1.3,0 2.6,0 3.9,0.1 16.1,0.2 32.3,0.5 48.4,0.9 0.7,0 1.4,0 2.1,0 42.6,0.9 85.2,1.9 127.8,3 42.6,1.2 85.2,2.5 127.7,3.9 0.3,0.1 0.6,0.1 0.9,0.1 16.2,0.5 32.5,1.1 48.7,1.7 2.4,0.1 4.9,0.2 7.3,0.3 13.8,0.5 27.6,1 41.4,1.6 4.2,0.1 8.4,0.3 12.6,0.5 12.7,0.5 25.4,1 38.1,1.6 3.7,0.1 7.4,0.3 11.1,0.4 13.3,0.6 26.6,1.2 39.9,1.8 3.4,0.2 6.7,0.3 10,0.5 13.2,0.6 26.3,1.2 39.5,1.8 4,0.2 8,0.4 12,0.6 12.2,0.6 24.2,1.2 36.4,1.8 4.9,0.2 9.8,0.5 14.7,0.7 12.4,0.7 24.8,1.3 37.2,2 2.8,0.2 5.6,0.3 8.4,0.4 1.1,0.1 2.2,0.2 3.3,0.2 11.7,0.7 23.3,1.3 34.9,2 5.5,0.3 11,0.6 16.4,0.9 8.1,0.4 16.1,0.9 24.1,1.4 9.2,0.5 18.4,1.1 27.5,1.6 2.4,0.1 4.7,0.3 7,0.4 1664.3,100.4 3277.6,431 4607.2,991.6 0.7,0.3 1.4,0.6 2.2,0.9 11.7,4.9 23.3,9.9 34.9,14.8 1.2,0.5 2.4,1 3.5,1.5 11.4,4.9 22.8,9.8 34.2,14.7 1.2,0.5 2.4,1 3.5,1.5 11.1,4.8 22.2,9.6 33.3,14.4 2,0.9 4,1.8 6.1,2.7 10.5,4.6 20.9,9.2 31.4,13.8 2.1,1 4.2,1.9 6.4,2.9 10.1,4.5 20.3,9 30.4,13.5 3.2,1.4 6.3,2.8 9.4,4.2 9.3,4.2 18.5,8.3 27.7,12.5 4.1,1.8 8.2,3.7 12.2,5.5 8.4,3.8 16.8,7.6 25.1,11.4 6.1,2.8 12.2,5.7 18.3,8.5 6.2,2.8 12.5,5.7 18.7,8.6 12.5,5.8 25,11.6 37.5,17.5 2,0.9 4,1.8 6,2.8 10.8,5 21.5,10.1 32.3,15.2 2,1 4,1.9 6,2.9 10.5,5 21,10 31.5,15 2.7,1.4 5.5,2.7 8.2,4 10,4.8 20,9.6 29.9,14.5 2.2,1 4.3,2.1 6.5,3.1 10.6,5.2 21.1,10.4 31.6,15.5 l 5.1,2.5 c 10.9,5.4 21.7,10.8 32.5,16.1 1.7,0.9 3.4,1.7 5.1,2.6 11,5.5 22,11 32.9,16.6 1.1,0.5 2.2,1.1 3.3,1.6 11.8,6 23.6,12 35.4,18 0.2,0.1 0.4,0.2 0.6,0.3 16.1,8.3 32.1,16.6 48.1,24.9 1.5,0.8 3,1.6 4.6,2.3 15.7,8.2 31.3,16.5 47,24.7 1.4,0.8 2.9,1.6 4.4,2.4 15.9,8.4 31.8,16.9 47.7,25.5 0.4,0.2 0.8,0.4 1.3,0.7 83.3,44.9 165.1,91 245.2,138.1 1014.6,596.9 1765.8,1369.5 2098,2317.8 l 0.3,0.6 c 2.5,7.3 5,14.6 7.5,21.8 0.3,0.9 0.6,1.8 0.9,2.6 2.3,6.9 4.7,13.8 7,20.7 0.4,1.3 0.8,2.6 1.2,3.8 2.2,6.5 4.4,13 6.5,19.5 0.7,2.3 1.5,4.6 2.2,7 1.8,5.6 3.6,11.2 5.4,16.8 2.6,8 5.1,16 7.6,24.1 0.9,3.1 1.9,6.2 2.9,9.3 1.5,5.1 3.1,10.2 4.6,15.3 1.5,4.9 2.9,9.8 4.4,14.7 1.2,4.1 2.4,8.2 3.6,12.3 2.7,9.2 5.3,18.4 7.9,27.6 h -2258.6"
         style="fill:#250b22;fill-opacity:1;fill-rule:nonzero;stroke:none"
         id="path14" />
      <path
         d="m 7475.73,8474.7 c 19.17,62.9 13.48,133.4 -16.75,191.8 -17.04,33 -46.34,64.6 -83.43,65.2 -51.05,0.7 -83.77,-57.5 -85.04,-108.5 -10.48,78.8 -110.08,171.7 -181.94,94.5 -10.48,29 -25.84,59.9 -48.52,81.2 -23.96,22.6 -61.67,34.1 -90.53,18.3 -5.88,40.6 -43.58,74.3 -84.66,75.6 -1.75,44.7 -5.39,93.2 -34.99,126.7 -29.6,33.6 -94.82,36.6 -112.43,-4.5 4.49,50.8 -1.9,102.5 -18.62,150.7 -6.13,17.6 -14.02,35.4 -27.86,47.9 -22.8,20.7 -57.19,23.1 -87.31,16.7 -53.27,-11.2 -110.13,-55 -132.5,-108.4 -9.19,45.1 -45.9,85.9 -94.08,87.5 -23.87,0.8 -48.52,-6.6 -71.22,0.8 -18.09,6 -31.86,20.4 -47.64,31.1 -35.91,24.2 -84.67,28 -123.9,9.6 -14.29,42.2 -54.59,74.2 -98.75,79.2 -2.23,0.2 -4.44,0.5 -6.66,0.6 -46.62,2.3 -86.57,-25.3 -112.41,-62 -20.55,30 -13.61,71 -25.23,107.4 -9.92,31.1 -36.54,64.6 -68.22,56.7 -1.63,-0.4 -3.2,-0.9 -4.72,-1.5 -22.08,-8.5 -32.69,-35 -39.99,-58.3 -23.31,41.3 -47.28,83.5 -82.79,115 -35.51,31.5 -85.33,50.9 -131.09,38.3 -40.18,-11.1 -70.2,-44.2 -94.48,-78.1 -40.75,-56.9 -72.63,-131.9 -43.19,-195.4 -74.69,21.5 -126.27,-58 -118.93,-123.6 -7.58,35.9 -35.14,75 -74.98,76.9 -35.39,1.6 -65.11,-43.4 -49.26,-71.2 -43.19,50.1 -102.78,91.1 -168.34,88.1 -69.44,-3.1 -135.13,-75.6 -110.29,-140.6 -31.03,28.3 -85.82,15.4 -109.26,-19.4 -23.44,-34.8 -19.52,-82.7 0,-119.9 -33.65,9.3 -72.5,-6 -90.91,-35.6 -18.4,-29.7 -14.82,-71.3 8.39,-97.3 -55.16,29.8 -129.71,17.9 -172.78,-27.7 -43.08,-45.6 -50.81,-120.7 -17.92,-174.1 -71.98,21.8 -156.68,30 -175.55,-64.9 -2.37,-11.9 -3.15,-23.9 -2.79,-35.9 -276.35,-102 -442.1,-232.3 -442.1,-374.2 v 0 c 0,-9.2 0.73,-18.3 2.1,-27.3 l 203.22,-2648.4 143.45,-1869.4 5.33,-69.4 c 0,-2.6 0.04,-5.2 0.12,-7.8 0.02,-0.9 0.06,-1.7 0.08,-2.6 0.08,-1.8 0.16,-3.7 0.25,-5.5 0.05,-0.9 0.1,-1.7 0.15,-2.6 0.13,-2 0.29,-4.1 0.47,-6.2 0.06,-0.5 0.09,-1.1 0.14,-1.7 0.24,-2.6 0.51,-5.1 0.82,-7.7 l 0.29,-2.2 c 0.23,-1.9 0.48,-3.7 0.75,-5.6 0.14,-0.9 0.28,-1.8 0.43,-2.8 0.28,-1.8 0.59,-3.5 0.9,-5.3 0.14,-0.9 0.29,-1.7 0.44,-2.5 0.45,-2.5 0.94,-5 1.45,-7.4 0.17,-0.8 0.36,-1.6 0.53,-2.3 0.38,-1.8 0.8,-3.7 1.23,-5.5 0.24,-1 0.48,-2 0.73,-2.9 0.4,-1.6 0.79,-3.2 1.21,-4.7 0.28,-1.1 0.56,-2.1 0.84,-3.2 0.47,-1.6 0.96,-3.3 1.46,-5 0.44,-1.5 0.89,-3 1.35,-4.4 0.54,-1.7 1.08,-3.4 1.64,-5.2 0.41,-1.2 0.84,-2.4 1.25,-3.6 0.42,-1.2 0.83,-2.4 1.26,-3.6 0.48,-1.4 0.97,-2.7 1.47,-4 0.42,-1.2 0.86,-2.3 1.3,-3.4 1.94,-5.1 4.03,-10.2 6.26,-15.2 0.34,-0.8 0.68,-1.5 1.03,-2.3 0.72,-1.6 1.46,-3.2 2.2,-4.8 0.36,-0.8 0.71,-1.5 1.06,-2.2 0.79,-1.7 1.57,-3.3 2.39,-5 0.04,-0.1 0.07,-0.1 0.11,-0.2 2,-4 4.09,-8 6.27,-12 0.08,-0.2 0.16,-0.4 0.25,-0.5 1.05,-2 2.14,-3.9 3.24,-5.8 0.13,-0.3 0.26,-0.5 0.4,-0.7 1.79,-3.2 3.64,-6.3 5.53,-9.4 0.37,-0.6 0.73,-1.2 1.09,-1.8 3.9,-6.4 8.02,-12.7 12.36,-19 0.18,-0.2 0.36,-0.5 0.55,-0.8 1.88,-2.7 3.82,-5.4 5.78,-8.1 0.44,-0.6 0.9,-1.2 1.35,-1.8 1.66,-2.3 3.36,-4.6 5.09,-6.9 0.32,-0.4 0.65,-0.8 0.98,-1.2 4.38,-5.7 8.93,-11.4 13.65,-17.1 0.01,0 0.01,0 0.01,0 1.98,-2.3 3.99,-4.7 6.02,-7 0.34,-0.4 0.69,-0.8 1.05,-1.2 1.73,-2 3.48,-4 5.26,-5.9 0.36,-0.4 0.73,-0.8 1.09,-1.3 1.94,-2.1 3.89,-4.2 5.87,-6.4 0.11,-0.1 0.21,-0.2 0.31,-0.3 234.38,-250.9 818.73,-428.7 1502.58,-428.7 67.18,0 133.39,1.8 198.41,5.1 796.85,40.8 1413.92,324.4 1413.92,668.2 l 35.65,464.4 113.13,1474.4 38.74,504.9 7.99,104 143.28,1867.2 13.22,172.3 c 1.37,9 2.1,18.1 2.1,27.3 v 0 c 0,127.1 -132.95,244.9 -359.21,341.3"
         style="fill:#ef3635;fill-opacity:1;fill-rule:nonzero;stroke:none"
         id="path16" />
      <path
         d="m 4249.33,8421.2 c -35,-23.7 -43.74,-80.8 -12.93,-109.7 -27.83,28.7 -77.53,30.5 -109.68,6.7 -32.15,-23.8 -45.41,-68.7 -35.12,-107.4 8.93,-33.4 33.82,-61.4 64.68,-77.4 4.75,-2.4 9.63,-4.6 14.62,-6.5 -54.12,20.3 -60.45,-145.7 -53.58,-171.1 16.09,-59.6 61.31,-112.2 114.28,-146.4 13.15,-8.5 26.78,-15.8 40.56,-21.9 0.21,-0.1 0.41,-0.2 0.61,-0.3 133.18,-57.9 276.24,-96.2 417.69,-128 1.17,-0.3 2.35,-0.6 3.52,-0.8 1.74,-0.4 3.49,-0.8 5.23,-1.2 1.16,-0.3 2.32,-0.5 3.47,-0.8 0.86,-0.2 1.72,-0.3 2.57,-0.5 7.07,-1.6 14.15,-3.1 21.23,-4.7 151.82,-32.8 305.59,-57.1 460.27,-74.4 27.7,-3.1 55.42,-6 83.16,-8.7 155.28,-14.8 311.28,-22.9 466.94,-25.7 26.94,-0.5 53.88,-0.9 80.8,-1 h 0.22 c 6.93,-0.1 13.85,-0.1 20.78,-0.2 8.88,0 17.76,0 26.63,0 1.07,0 2.15,0 3.21,0 9.37,0 18.71,0 28.04,0 6.88,0.1 13.77,0.1 20.66,0.1 1.02,0 2.06,0.1 3.08,0.1 47.5,0.3 95.03,1.1 142.57,2.5 132.6,3.7 265.25,11.4 397.39,24 23.26,2.2 46.51,4.5 69.73,7 126.53,13.7 252.49,32 377.43,55.6 8.04,1.5 16.04,3 24.01,4.6 1.03,0.2 2.06,0.3 3.09,0.5 1.86,0.4 3.72,0.8 5.59,1.2 5.22,1 10.42,2 15.61,3 3.01,0.6 6.02,1.2 9.03,1.9 4.04,0.8 8.07,1.6 12.09,2.4 6.89,1.5 13.73,2.9 20.56,4.3 32.58,6.9 65.08,14.1 97.48,21.9 74.21,17.8 147.81,38.2 220.26,62 7.1,2.3 14.15,4.6 21.13,7 3.78,1.2 7.55,2.5 11.31,3.8 1.72,0.6 3.46,1.2 5.18,1.8 67.43,23.4 152.57,46.9 216.7,88.1 6.3,4.1 12.41,8.3 18.27,12.7 55.8,42 89.87,101.1 70.39,192 -3.28,15.2 -10.21,29.8 -19.67,42.5 -13.5,18 -32.12,32.2 -52.56,38.6 -14.36,4.6 -29.61,5.3 -44.6,1 3.62,1.1 6.37,6 8.45,13.6 9.9,36.4 3.93,133.2 0.1,148.8 -11.59,47.3 -41.63,93.5 -80.29,122.8 -4.7,3.5 -9.81,7.2 -11.78,12.8 -2.63,7.4 1.2,15.4 4.6,22.5 5.35,11.1 9.8,22.6 13.39,34.4 19.17,62.9 13.48,133.4 -16.75,191.8 -17.04,33 -46.34,64.6 -83.43,65.2 -51.05,0.7 -83.77,-57.5 -85.04,-108.5 -10.48,78.8 -110.08,171.7 -181.94,94.5 -10.48,29 -25.84,59.9 -48.52,81.2 -23.96,22.6 -61.67,34.1 -90.53,18.3 -5.88,40.6 -43.58,74.3 -84.66,75.6 -1.75,44.7 -5.39,93.2 -34.99,126.7 -29.6,33.6 -94.82,36.6 -112.43,-4.5 4.49,50.8 -1.9,102.5 -18.62,150.7 -6.13,17.6 -14.02,35.4 -27.86,47.9 -22.8,20.7 -57.19,23.1 -87.31,16.7 -53.27,-11.2 -110.13,-55 -132.5,-108.4 -9.19,45.1 -45.9,85.9 -94.08,87.5 -23.87,0.8 -48.52,-6.6 -71.22,0.8 -18.09,6 -31.86,20.4 -47.64,31.1 -35.91,24.2 -84.67,28 -123.9,9.6 -14.29,42.2 -54.59,74.2 -98.75,79.2 -2.23,0.2 -4.44,0.5 -6.66,0.6 -46.62,2.3 -86.57,-25.3 -112.41,-62 -20.55,30 -13.61,71 -25.23,107.4 -9.92,31.1 -36.54,64.6 -68.22,56.7 -1.63,-0.4 -3.2,-0.9 -4.72,-1.5 -22.08,-8.5 -32.69,-35 -39.99,-58.3 -23.31,41.3 -47.28,83.5 -82.79,115 -35.51,31.5 -85.33,50.9 -131.09,38.3 -40.18,-11.1 -70.2,-44.2 -94.48,-78.1 -40.75,-56.9 -72.63,-131.9 -43.19,-195.4 -74.69,21.5 -126.27,-58 -118.93,-123.6 -7.58,35.9 -35.14,75 -74.98,76.9 -35.39,1.6 -65.11,-43.4 -49.26,-71.2 -43.19,50.1 -102.78,91.1 -168.34,88.1 -69.44,-3.1 -135.13,-75.6 -110.29,-140.6 -31.03,28.3 -85.82,15.4 -109.26,-19.4 -23.44,-34.8 -19.52,-82.7 0,-119.9 -33.65,9.3 -72.5,-6 -90.91,-35.6 -18.4,-29.7 -14.82,-71.3 8.39,-97.3 -55.16,29.8 -129.71,17.9 -172.78,-27.7 -43.08,-45.6 -50.81,-120.7 -17.92,-174.1 -71.98,21.8 -156.68,30 -175.55,-64.9 -2.37,-11.9 -3.15,-23.9 -2.79,-35.9 1.01,-34 11.28,-68 21.47,-100.8 -30.38,29.3 -81.3,38.1 -116.3,14.4"
         style="fill:#f0ce6c;fill-opacity:1;fill-rule:nonzero;stroke:none"
         id="path18" />
      <path
         d="m 1832.72,5187.1 c -0.9,2.3 -1.78,4.7 -2.67,7.1 -3.04,8.1 -6.04,16.2 -9.01,24.3 0.09,-0.2 0.17,-0.5 0.26,-0.7 2.34,-6.4 4.7,-12.8 7.08,-19.1 1.59,-4.3 3.2,-8.6 4.81,-12.9 1.83,-4.8 3.65,-9.6 5.49,-14.4 1.45,-3.8 2.9,-7.6 4.36,-11.4 -0.07,0.2 -0.14,0.4 -0.22,0.6 -3.4,8.8 -6.78,17.6 -10.1,26.5"
         style="fill:#250b22;fill-opacity:1;fill-rule:nonzero;stroke:none"
         id="path20" />
      <path
         d="m 1809.55,5250.5 c -0.6,1.6 -1.22,3.3 -1.82,5 0.88,-2.4 1.76,-4.9 2.64,-7.4 1.53,-4.3 3.06,-8.6 4.61,-12.9 1.03,-2.9 2.08,-5.7 3.12,-8.6 -0.17,0.5 -0.33,0.9 -0.5,1.4 -2.7,7.5 -5.39,15 -8.05,22.5"
         style="fill:#250b22;fill-opacity:1;fill-rule:nonzero;stroke:none"
         id="path22" />
      <path
         d="m 1957.5,4897.7 c 0.67,-1.4 1.33,-2.8 1.99,-4.1 1.08,-2.2 2.15,-4.4 3.23,-6.6 2.71,-5.6 5.44,-11.1 8.19,-16.6 0.48,-0.9 0.97,-1.9 1.44,-2.9 -5,10.1 -9.94,20.1 -14.85,30.2"
         style="fill:#250b22;fill-opacity:1;fill-rule:nonzero;stroke:none"
         id="path24" />
      <path
         d="m 1886.74,5052.7 c 1.06,-2.5 2.1,-5 3.18,-7.5 1.49,-3.5 2.99,-7 4.5,-10.5 0.81,-1.8 1.63,-3.7 2.44,-5.5 -3.41,7.8 -6.77,15.6 -10.12,23.5"
         style="fill:#250b22;fill-opacity:1;fill-rule:nonzero;stroke:none"
         id="path26" />
      <path
         d="m 1871.64,5088.6 c 0.92,-2.3 1.83,-4.5 2.75,-6.7 1.36,-3.3 2.72,-6.5 4.09,-9.7 0.95,-2.3 1.93,-4.6 2.89,-6.9 -3.26,7.8 -6.52,15.5 -9.73,23.3"
         style="fill:#250b22;fill-opacity:1;fill-rule:nonzero;stroke:none"
         id="path28" />
      <path
         d="m 1845.69,5153.2 c 1.94,-5 3.89,-10 5.87,-14.9 1.67,-4.3 3.35,-8.5 5.03,-12.7 -0.13,0.3 -0.26,0.6 -0.38,0.9 -3.55,8.9 -7.05,17.8 -10.52,26.7"
         style="fill:#250b22;fill-opacity:1;fill-rule:nonzero;stroke:none"
         id="path30" />
      <path
         d="m 1899.09,5024.1 c 0.68,-1.6 1.35,-3.1 2.02,-4.7 1.4,-3.2 2.81,-6.3 4.22,-9.5 1.71,-3.9 3.45,-7.7 5.18,-11.6 -3.84,8.6 -7.65,17.2 -11.42,25.8"
         style="fill:#250b22;fill-opacity:1;fill-rule:nonzero;stroke:none"
         id="path32" />
      <path
         d="m 1913.41,4991.8 c 1,-2.2 1.99,-4.4 3,-6.6 1.32,-2.9 2.65,-5.8 3.98,-8.7 1.82,-4.1 3.64,-8.1 5.48,-12.1 -4.2,9.1 -8.35,18.3 -12.46,27.4"
         style="fill:#250b22;fill-opacity:1;fill-rule:nonzero;stroke:none"
         id="path34" />
      <path
         d="m 1857.49,5123.3 c 0.09,-0.2 0.16,-0.4 0.24,-0.6 1.92,-4.8 3.85,-9.5 5.78,-14.3 1.53,-3.8 3.08,-7.6 4.63,-11.3 0.4,-1 0.8,-2 1.19,-2.9 -3.98,9.7 -7.94,19.4 -11.84,29.1"
         style="fill:#250b22;fill-opacity:1;fill-rule:nonzero;stroke:none"
         id="path36" />
      <path
         d="m 1755.93,5415.4 c 1.46,-4.9 2.92,-9.8 4.4,-14.7 0.84,-2.8 1.69,-5.7 2.55,-8.5 0.19,-0.6 0.37,-1.2 0.55,-1.8 -0.14,0.4 -0.29,0.9 -0.43,1.4 -2.39,7.9 -4.73,15.7 -7.07,23.6"
         style="fill:#250b22;fill-opacity:1;fill-rule:nonzero;stroke:none"
         id="path38" />
      <path
         d="m 1787.31,5315.4 c -0.76,2.3 -1.56,4.6 -2.33,6.9 1.42,-4.3 2.88,-8.6 4.31,-12.9 1.51,-4.5 3.03,-9.1 4.56,-13.6 0.3,-0.9 0.62,-1.8 0.93,-2.7 -0.04,0.1 -0.08,0.2 -0.12,0.3 -2.48,7.3 -4.92,14.7 -7.35,22"
         style="fill:#250b22;fill-opacity:1;fill-rule:nonzero;stroke:none"
         id="path40" />
      <path
         d="m 1927.61,4960.7 c 0.6,-1.3 1.19,-2.6 1.79,-3.9 1.34,-2.9 2.67,-5.8 4.01,-8.6 2.51,-5.4 5.02,-10.8 7.56,-16.1 1.28,-2.7 2.57,-5.4 3.86,-8.1 3.78,-8 7.59,-15.9 11.43,-23.8 -9.74,20.1 -19.29,40.2 -28.65,60.5"
         style="fill:#250b22;fill-opacity:1;fill-rule:nonzero;stroke:none"
         id="path42" />
      <path
         d="m 1776.62,5348.3 c -0.44,1.3 -0.88,2.7 -1.31,4 1.49,-4.7 3,-9.4 4.52,-14.1 1.17,-3.6 2.35,-7.3 3.55,-10.9 0.45,-1.4 0.91,-2.8 1.38,-4.3 -0.34,1.1 -0.67,2.1 -1.01,3.2 -2.41,7.3 -4.78,14.7 -7.13,22.1"
         style="fill:#250b22;fill-opacity:1;fill-rule:nonzero;stroke:none"
         id="path44" />
      <path
         d="m 4518.85,2618.3 c 25.65,-12.2 51.43,-24.4 77.34,-36.4 -25.9,12 -51.69,24.2 -77.34,36.4"
         style="fill:#250b22;fill-opacity:1;fill-rule:nonzero;stroke:none"
         id="path46" />
      <path
         d="m 2040.54,4737.8 c 2.5,-4.6 4.98,-9.1 7.5,-13.6 1.01,-1.8 2.03,-3.6 3.04,-5.5 3.34,-5.9 6.69,-11.9 10.06,-17.8 0.17,-0.3 0.34,-0.6 0.51,-0.9 6.92,-12.2 13.92,-24.3 20.99,-36.5 0.95,-1.6 1.89,-3.2 2.84,-4.8 3.29,-5.6 6.59,-11.3 9.91,-16.9 1.18,-2 2.38,-4 3.57,-6 10.76,-18 21.67,-36 32.75,-53.9 1.02,-1.7 2.03,-3.3 3.05,-4.9 3.63,-5.9 7.28,-11.7 10.96,-17.6 0.63,-1 1.29,-2 1.93,-3 7.32,-11.7 14.71,-23.3 22.17,-34.8 0.73,-1.1 1.45,-2.2 2.17,-3.4 3.59,-5.5 7.19,-11 10.81,-16.6 1.3,-2 2.61,-4 3.93,-6 11.61,-17.6 23.37,-35.2 35.3,-52.7 1.13,-1.6 2.25,-3.3 3.38,-4.9 3.81,-5.6 7.64,-11.2 11.48,-16.7 1.11,-1.6 2.23,-3.2 3.34,-4.9 12.17,-17.5 24.5,-35 37,-52.3 1.24,-1.8 2.48,-3.5 3.72,-5.2 3.95,-5.5 7.91,-11 11.9,-16.4 0.77,-1.1 1.54,-2.1 2.31,-3.2 7.86,-10.8 15.79,-21.5 23.76,-32.2 1.22,-1.6 2.43,-3.2 3.63,-4.9 3.96,-5.2 7.93,-10.5 11.93,-15.8 1.53,-2 3.07,-4 4.6,-6.1 12.55,-16.5 25.25,-33 38.1,-49.4 1.76,-2.2 3.52,-4.4 5.29,-6.7 3.9,-4.9 7.81,-9.9 11.74,-14.8 1.61,-2.1 3.25,-4.1 4.87,-6.1 7.46,-9.4 14.97,-18.7 22.52,-28 1.61,-2 3.21,-4 4.81,-5.9 3.9,-4.8 7.83,-9.6 11.75,-14.4 2.09,-2.5 4.2,-5.1 6.3,-7.6 12.66,-15.3 25.44,-30.6 38.35,-45.8 2.51,-2.9 5.02,-5.8 7.53,-8.8 3.77,-4.4 7.56,-8.8 11.36,-13.2 2.35,-2.7 4.71,-5.5 7.08,-8.2 7.1,-8.2 14.24,-16.4 21.43,-24.5 2.07,-2.4 4.12,-4.7 6.2,-7.1 3.95,-4.5 7.92,-8.9 11.89,-13.4 2.49,-2.8 4.99,-5.6 7.49,-8.4 3.89,-4.3 7.79,-8.6 11.71,-13 2.25,-2.5 4.53,-5 6.79,-7.5 7.31,-8 14.65,-16.1 22.04,-24.1 2.4,-2.6 4.79,-5.2 7.2,-7.8 4.03,-4.4 8.06,-8.7 12.11,-13 2.52,-2.7 5.05,-5.4 7.58,-8.1 7.96,-8.5 15.96,-17 23.99,-25.5 1.72,-1.8 3.43,-3.6 5.15,-5.4 4.07,-4.2 8.17,-8.5 12.26,-12.8 2.74,-2.8 5.47,-5.6 8.21,-8.5 4.02,-4.1 8.06,-8.3 12.11,-12.4 2.84,-3 5.7,-5.9 8.55,-8.8 6.73,-6.9 13.48,-13.7 20.26,-20.6 3.27,-3.2 6.52,-6.5 9.8,-9.8 3.78,-3.8 7.58,-7.6 11.38,-11.4 3.22,-3.2 6.45,-6.4 9.69,-9.6 3.96,-3.9 7.92,-7.8 11.89,-11.7 1.54,-1.6 3.09,-3.1 4.62,-4.6 8.52,-8.3 17.07,-16.6 25.67,-24.9 3.06,-3 6.11,-5.9 9.17,-8.9 4.14,-4 8.29,-8 12.46,-11.9 2.91,-2.8 5.84,-5.6 8.76,-8.3 7.51,-7.2 15.07,-14.3 22.65,-21.4 2.81,-2.7 5.62,-5.3 8.45,-7.9 4.31,-4.1 8.64,-8.1 12.97,-12.1 3.09,-2.8 6.18,-5.7 9.28,-8.6 4.24,-3.9 8.47,-7.8 12.72,-11.7 3.05,-2.8 6.11,-5.5 9.16,-8.3 7.46,-6.8 14.94,-13.6 22.45,-20.3 3.29,-3 6.58,-6 9.89,-8.9 4.19,-3.8 8.39,-7.5 12.61,-11.3 3.24,-2.8 6.49,-5.7 9.74,-8.6 7.73,-6.8 15.47,-13.7 23.26,-20.5 3.03,-2.6 6.05,-5.3 9.09,-7.9 4.54,-4 9.1,-7.9 13.66,-11.8 2.89,-2.5 5.77,-5 8.66,-7.5 4.91,-4.2 9.84,-8.5 14.77,-12.7 1.91,-1.6 3.82,-3.2 5.72,-4.8 9.03,-7.7 18.1,-15.4 27.2,-23 3.09,-2.6 6.17,-5.2 9.28,-7.8 4.58,-3.9 9.18,-7.7 13.78,-11.5 3.08,-2.6 6.17,-5.1 9.25,-7.7 16.33,-13.5 32.79,-26.9 49.36,-40.3 2.65,-2.2 5.29,-4.3 7.94,-6.4 5.13,-4.2 10.26,-8.3 15.42,-12.4 2.34,-1.9 4.7,-3.7 7.05,-5.6 10.3,-8.2 20.64,-16.4 31.03,-24.5 1.74,-1.4 3.48,-2.8 5.23,-4.1 5.46,-4.3 10.96,-8.6 16.46,-12.9 2.27,-1.7 4.55,-3.5 6.83,-5.3 18.25,-14.1 36.62,-28.2 55.12,-42.1 1.69,-1.3 3.39,-2.6 5.08,-3.9 5.84,-4.4 11.7,-8.8 17.56,-13.2 1.8,-1.3 3.59,-2.6 5.39,-4 19.26,-14.4 38.64,-28.6 58.17,-42.9 0.94,-0.6 1.88,-1.3 2.83,-2 12.98,-9.5 26.04,-18.8 39.14,-28.2 5.02,-3.6 10.07,-7.2 15.1,-10.7 8.25,-5.9 16.51,-11.8 24.81,-17.6 5.83,-4.1 11.7,-8.2 17.55,-12.3 7.33,-5.1 14.65,-10.2 22.02,-15.3 6.63,-4.6 13.3,-9.1 19.97,-13.7 6.8,-4.7 13.59,-9.3 20.42,-14 6.74,-4.6 13.52,-9.1 20.29,-13.7 6.76,-4.6 13.52,-9.1 20.31,-13.7 7.22,-4.8 14.46,-9.6 21.73,-14.4 6,-4 12.02,-8 18.05,-12 7.97,-5.2 15.95,-10.5 23.96,-15.7 5.51,-3.6 11.04,-7.2 16.57,-10.7 8.42,-5.5 16.86,-11 25.32,-16.4 4.91,-3.2 9.85,-6.3 14.77,-9.4 9.22,-5.9 18.45,-11.8 27.72,-17.7 3.76,-2.3 7.55,-4.7 11.34,-7.1 10.26,-6.4 20.53,-12.9 30.85,-19.3 2.16,-1.3 4.33,-2.7 6.48,-4 236.96,-146.9 489.49,-283.7 755.43,-410.5 -1112.09,530.3 -1989.52,1236.5 -2476.54,2118.7"
         style="fill:#250b22;fill-opacity:1;fill-rule:nonzero;stroke:none"
         id="path48" />
      <path
         d="m 2002.79,4807.9 c 0.97,-1.8 1.94,-3.7 2.92,-5.5 3.02,-5.8 6.06,-11.5 9.12,-17.3 1.06,-2 2.13,-4 3.19,-6 1.38,-2.5 2.77,-5.1 4.15,-7.6 -7.07,13.1 -14.06,26.3 -20.96,39.5 0.53,-1 1.05,-2 1.58,-3.1"
         style="fill:#250b22;fill-opacity:1;fill-rule:nonzero;stroke:none"
         id="path50" />
      <path
         d="m 2035.99,4746 c -2.72,5 -5.4,9.9 -8.09,14.9 2.69,-5 5.37,-9.9 8.09,-14.9"
         style="fill:#250b22;fill-opacity:1;fill-rule:nonzero;stroke:none"
         id="path52" />
      <path
         d="m 4614.37,2573.5 c 6.29,-2.9 12.56,-5.8 18.86,-8.7 -6.3,2.9 -12.57,5.8 -18.86,8.7"
         style="fill:#250b22;fill-opacity:1;fill-rule:nonzero;stroke:none"
         id="path54" />
      <path
         d="m 4667.62,2549.1 c 4.7,-2.2 9.41,-4.3 14.11,-6.4 -4.7,2.1 -9.41,4.3 -14.11,6.4"
         style="fill:#250b22;fill-opacity:1;fill-rule:nonzero;stroke:none"
         id="path56" />
      <path
         d="m 1743.67,5457.7 c 2.61,-9.3 5.28,-18.5 7.98,-27.8 0.22,-0.7 0.43,-1.5 0.65,-2.2 -2.91,10 -5.8,19.9 -8.63,30"
         style="fill:#250b22;fill-opacity:1;fill-rule:nonzero;stroke:none"
         id="path58" />
      <path
         d="m 1972.48,4867.3 c 0.72,-1.5 1.44,-2.9 2.16,-4.3 4.39,-8.8 8.84,-17.6 13.31,-26.3 -5.2,10.1 -10.36,20.3 -15.47,30.6"
         style="fill:#250b22;fill-opacity:1;fill-rule:nonzero;stroke:none"
         id="path60" />
      <path
         d="m 1766.19,5381.5 c -0.82,2.6 -1.67,5.3 -2.48,8 2.4,-7.9 4.83,-15.8 7.29,-23.6 0.64,-2.1 1.3,-4.1 1.95,-6.1 -2.28,7.2 -4.52,14.4 -6.76,21.7"
         style="fill:#250b22;fill-opacity:1;fill-rule:nonzero;stroke:none"
         id="path62" />
      <path
         d="m 1798.29,5282.8 c -0.24,0.7 -0.48,1.4 -0.72,2.1 1.09,-3.2 2.18,-6.4 3.28,-9.6 1.44,-4.2 2.89,-8.3 4.35,-12.5 0.71,-2 1.4,-4 2.11,-6.1 -0.48,1.4 -0.94,2.8 -1.41,4.1 -2.56,7.3 -5.1,14.7 -7.61,22"
         style="fill:#250b22;fill-opacity:1;fill-rule:nonzero;stroke:none"
         id="path64" />
      <path
         d="m 12210.8,8892 c -21.2,-23.1 -42.9,-45.6 -65.2,-67.6 26.6,16.7 49,38.8 65.2,67.6"
         style="fill:#f0ce6c;fill-opacity:1;fill-rule:nonzero;stroke:none"
         id="path66" />
      <path
         d="m 5289.52,2890.5 c -7.5,278.1 -16.83,666.9 -27.1,1119.5 -9.93,437.2 -20.74,933.9 -31.67,1447.7 -15.14,711.3 -30.49,1455.2 -44,2119.1 -154.68,17.3 -308.45,41.6 -460.27,74.4 -7.12,1.6 -14.19,3.1 -21.23,4.7 -0.87,0.1 -1.72,0.3 -2.57,0.5 -1.15,0.3 -2.31,0.5 -3.47,0.8 -1.74,0.4 -3.49,0.8 -5.23,1.2 -1.17,0.2 -2.35,0.5 -3.52,0.8 -141.45,31.8 -284.51,70.1 -417.69,128 -0.2,0.1 -0.4,0.2 -0.61,0.3 -13.78,5.8 -27.22,11.6 -40.32,17.5 -192.59,86.9 -310.91,190 -327.68,301.1 l 203.22,-2648.4 143.45,-1869.4 5.33,-69.4 c 0,-2.6 0.04,-5.2 0.12,-7.8 0.02,-0.9 0.06,-1.7 0.08,-2.6 0.08,-1.8 0.16,-3.7 0.25,-5.5 0.05,-0.9 0.1,-1.7 0.15,-2.6 0.13,-2 0.29,-4.1 0.47,-6.2 0.06,-0.5 0.09,-1.1 0.14,-1.7 0.24,-2.6 0.51,-5.1 0.82,-7.7 l 0.29,-2.2 c 0.23,-1.9 0.48,-3.7 0.75,-5.6 0.14,-0.9 0.28,-1.8 0.43,-2.8 0.28,-1.8 0.59,-3.5 0.9,-5.3 0.14,-0.9 0.29,-1.7 0.44,-2.5 0.45,-2.5 0.94,-5 1.45,-7.4 0.17,-0.8 0.36,-1.6 0.53,-2.3 0.38,-1.8 0.8,-3.7 1.23,-5.5 0.24,-1 0.48,-2 0.73,-2.9 0.4,-1.6 0.79,-3.2 1.21,-4.7 0.28,-1.1 0.56,-2.1 0.84,-3.2 0.47,-1.6 0.96,-3.3 1.46,-5 0.44,-1.5 0.89,-3 1.35,-4.4 0.54,-1.7 1.08,-3.4 1.64,-5.2 0.41,-1.2 0.84,-2.4 1.25,-3.6 0.42,-1.2 0.83,-2.4 1.26,-3.6 0.48,-1.4 0.97,-2.7 1.47,-4 0.42,-1.2 0.86,-2.3 1.3,-3.4 1.94,-5.1 4.03,-10.2 6.26,-15.2 0.34,-0.8 0.68,-1.5 1.03,-2.3 0.72,-1.6 1.46,-3.2 2.2,-4.8 0.36,-0.8 0.71,-1.5 1.06,-2.2 0.79,-1.7 1.57,-3.3 2.39,-5 0.04,-0.1 0.07,-0.1 0.11,-0.2 2,-4 4.09,-8 6.27,-12 0.08,-0.2 0.16,-0.4 0.25,-0.5 1.05,-2 2.14,-3.9 3.24,-5.8 0.13,-0.3 0.26,-0.5 0.4,-0.7 1.79,-3.2 3.64,-6.3 5.53,-9.4 0.37,-0.6 0.73,-1.2 1.09,-1.8 3.9,-6.3 8.02,-12.7 12.36,-19 0.18,-0.2 0.36,-0.5 0.55,-0.8 64.13,-92.5 174.62,-176.8 320.21,-248.3 3.4,-1.7 6.81,-3.3 10.24,-5 3.83,-1.8 7.69,-3.7 11.56,-5.5 1.22,-0.6 2.43,-1.2 3.64,-1.7 1.05,-0.5 2.11,-1 3.17,-1.5 54.5,-25.4 113.53,-49.1 176.69,-70.8 l -0.01,0.2 c 132.22,-45.4 282.05,-82.2 444.56,-108.4"
         style="fill:#b22725;fill-opacity:1;fill-rule:nonzero;stroke:none"
         id="path68" />
      <path
         d="m 4665.11,3071 c 1.05,-0.5 2.11,-1 3.17,-1.5 54.5,-25.4 113.53,-49.1 176.69,-70.8 l -0.01,0.2 -26.98,899.5 -46.79,1559.3 -65.94,2198.2 c -0.87,0.1 -1.72,0.3 -2.57,0.5 -1.15,0.3 -2.31,0.5 -3.47,0.8 -1.74,0.4 -3.49,0.8 -5.23,1.2 -1.17,0.2 -2.35,0.5 -3.52,0.8 -141.45,31.8 -284.51,70.1 -417.69,128 -0.2,0.1 -0.4,0.2 -0.61,0.3 -13.78,5.8 -27.22,11.6 -40.32,17.5 41.67,-724.1 90.45,-1565.5 136.69,-2347.3 37.88,-640.7 74.04,-1241.4 103.19,-1704.8 15.11,-240.4 28.33,-443.8 38.91,-596.8 42.01,-27.4 88.58,-53.4 139.28,-77.9 3.83,-1.8 7.69,-3.7 11.56,-5.5 1.22,-0.6 2.43,-1.2 3.64,-1.7"
         style="fill:#d6bda9;fill-opacity:1;fill-rule:nonzero;stroke:none"
         id="path70" />
      <path
         d="m 5374,4029.8 c 16.22,-510.9 30.41,-924.3 40.46,-1156.9 104.41,-12.8 213.18,-21.2 325.19,-24.9 l -0.73,1228.6 -0.83,1381.1 -1.24,2084.7 c -155.66,2.8 -311.66,10.9 -466.94,25.7 18.45,-655.9 39.73,-1401.8 60.64,-2110.4 15.08,-511.4 29.97,-1003.3 43.45,-1427.9"
         style="fill:#f8dcc5;fill-opacity:1;fill-rule:nonzero;stroke:none"
         id="path72" />
      <path
         d="M 7028.48,5457.7 6986.81,4068.8 6955.4,3021.6 c 135.59,51.8 249.8,113 336.86,181.3 13.88,203.6 31.77,484.1 52.21,814.9 25.8,417.6 55.66,915.3 86.67,1439.9 12.7,214.7 25.58,433.9 38.47,653.9 2.06,35.3 4.13,70.5 6.19,105.8 30.53,522.3 60.83,1045.9 88.25,1522.1 1.8,31.4 3.61,62.6 5.38,93.5 -64.13,-41.2 -149.27,-64.7 -216.7,-88.1 -1.72,-0.6 -3.46,-1.2 -5.18,-1.8 -3.76,-1.3 -7.53,-2.6 -11.31,-3.8 -6.98,-2.4 -14.03,-4.7 -21.13,-7 -72.45,-23.8 -146.05,-44.2 -220.26,-62 l -31.94,-1064.8 -34.43,-1147.8"
         style="fill:#f8dcc5;fill-opacity:1;fill-rule:nonzero;stroke:none"
         id="path74" />
      <path
         d="m 6060.77,4098.2 -0.74,-1235.5 -0.01,-12.2 c 2.27,0.1 4.52,0.3 6.78,0.4 110.09,5.6 216.71,15.9 318.77,30.3 10.52,245.3 25.44,683.3 42.43,1221.5 12.86,407.6 26.92,872.6 41.14,1355 19.41,657.7 39.14,1347.7 56.61,1967.9 1.43,50.3 2.83,100.1 4.21,149.3 -23.22,-2.5 -46.47,-4.8 -69.73,-7 -132.14,-12.6 -264.79,-20.3 -397.39,-24 l -1.26,-2086.2 -0.81,-1359.5"
         style="fill:#f8dcc5;fill-opacity:1;fill-rule:nonzero;stroke:none"
         id="path76" />
      <path
         d="m 7832.84,8106.1 c 1.37,9 2.1,18.1 2.1,27.3 v 0 c 0,127.1 -132.95,244.9 -359.21,341.3 -3.59,-11.8 -8.04,-23.3 -13.39,-34.4 -3.4,-7.1 -7.23,-15.1 -4.6,-22.5 1.97,-5.6 7.08,-9.3 11.78,-12.8 38.66,-29.3 68.7,-75.5 80.29,-122.8 3.83,-15.6 9.8,-112.4 -0.1,-148.8 -2.08,-7.6 -4.83,-12.5 -8.45,-13.6 14.99,4.3 30.24,3.6 44.6,-1 20.44,-6.4 39.06,-20.6 52.56,-38.6 9.46,-12.7 16.39,-27.3 19.67,-42.5 19.48,-90.9 -14.59,-150 -70.39,-192 143.66,77.7 230.92,166.2 245.14,260.4"
         style="fill:#721715;fill-opacity:1;fill-rule:nonzero;stroke:none"
         id="path78" />
      <path
         d="m 4231.84,7805 c 13.1,-5.9 26.54,-11.7 40.32,-17.5 -13.78,6.1 -27.41,13.4 -40.56,21.9 -52.97,34.2 -98.19,86.8 -114.28,146.4 -6.87,25.4 -0.54,191.4 53.58,171.1 -4.99,1.9 -9.87,4.1 -14.62,6.5 -30.86,16 -55.75,44 -64.68,77.4 -10.29,38.7 2.97,83.6 35.12,107.4 32.15,23.8 81.85,22 109.68,-6.7 -30.81,28.9 -22.07,86 12.93,109.7 35,23.7 85.92,14.9 116.3,-14.4 -10.19,32.8 -20.46,66.8 -21.47,100.8 -276.35,-102 -442.1,-232.3 -442.1,-374.2 v 0 c 0,-9.2 0.73,-18.3 2.1,-27.3 16.77,-111.1 135.09,-214.2 327.68,-301.1"
         style="fill:#721715;fill-opacity:1;fill-rule:nonzero;stroke:none"
         id="path80" />
      <path
         d="m 12097.7,14248.7 c 20,-118.4 30.6,-239.2 30.9,-360.2 1,-330.2 -74,-661.5 -239.1,-947.1 -102.1,-176.5 -234.8,-333.8 -390,-466.1 -79.6,-67.9 -164.1,-129.9 -253.8,-183.9 -84.3,-50.7 -172.9,-88.8 -246.9,-153.5 -10.1,-8.8 -2,-26.4 10.8,-26.1 160,3.4 317.9,111.4 445.5,201.4 139.4,98.4 264.6,217.3 371.2,350.6 227.2,284.1 364.9,627.1 401.5,988.9 12.3,121.1 9.5,239.6 -6.8,356.7 -12.9,93.2 -34.4,185.6 -63.8,277.7 -2.2,7 -5.8,12.3 -10.2,16.1 -14.5,-19 -30.9,-37.3 -49.3,-54.5"
         style="fill:#fddb8a;fill-opacity:1;fill-rule:nonzero;stroke:none"
         id="path82" />
      <path
         d="m 10733.5,10582.3 c 109.1,126.2 158.6,290.2 159.9,455.8 1.1,152.6 -32.4,347 -163.8,441.7 -22.6,16.3 -49.5,-10.5 -44,-33.8 16.1,-68.7 45.2,-132 65.6,-199.4 20.5,-67.8 30.4,-137.7 30.1,-208.5 -0.7,-142.6 -46.1,-279.8 -116.7,-402.6 -24.2,-42 35.4,-92 68.9,-53.2"
         style="fill:#fddb8a;fill-opacity:1;fill-rule:nonzero;stroke:none"
         id="path84" />
      <path
         d="m 11867.2,8715.1 c -17.2,-16.9 0.3,-52.8 25.1,-43.1 25.1,9.9 48.3,9.7 72.3,23.7 23.6,13.8 46.2,30.6 68,47 26.3,19.9 51.7,41.1 76.4,63.1 14.1,12.6 27.9,25.5 41.6,38.6 25.1,24 49.4,49 72.8,74.8 42.9,47.1 82.8,96.9 119.8,148.7 5.3,7.3 10.4,14.7 15.5,22.1 59.8,86.6 108,180.3 147.8,277.6 6.8,16.7 13.3,33.4 19.6,50.3 12.9,35 24.5,70.4 34.8,106.3 7,24.3 13.2,48.5 17.2,73.4 4.9,31.8 -2,55.1 -4.6,86.5 -1.9,23.2 -35.8,38 -48,13 -4.9,-10 -11,-19 -17,-28.1 -6.6,-10.1 -13,-20.2 -17.5,-31.7 -9.2,-23.3 -15,-48.2 -22,-72.2 -14.1,-48.2 -30.6,-95.8 -49.5,-142.4 -39.2,-96 -90.1,-187.1 -147.1,-273.5 -55.8,-84.6 -120.4,-162.9 -192.5,-234.2 -35.8,-35.4 -73.7,-68.1 -112.2,-100.5 -14.2,-11.8 -28.8,-23.2 -43.1,-34.9 -5,-4.2 -10,-8.3 -15,-12.6 -18.6,-15.8 -25.5,-35.3 -42.4,-51.9"
         style="fill:#fddb8a;fill-opacity:1;fill-rule:nonzero;stroke:none"
         id="path86" />
      <path
         d="m 13936.2,9118.8 c -414.9,324.4 -794.5,693.9 -1130.1,1099.7 -294.7,356.3 -415.5,842.9 -757.4,1164.4 -138.5,130.3 -314.6,215 -496.3,271.2 -45.8,14.2 -92.7,26.4 -140.2,36.4 -123.1,74.3 -252.6,138 -385.9,192 -24,9.9 -48,19.1 -72.5,27.6 -51.1,19.2 -102.5,37.4 -154.5,54.1 134.4,26.6 265.4,66.6 390.1,123.3 533.5,242 930.1,733.8 1050.9,1307.7 50.9,242.9 59.2,479.8 50.7,717.6 116.3,181.8 209.2,378.2 278.9,573.5 229.6,643.6 409.9,1319 375.8,2001.4 -25.6,513.1 -186.9,1033.5 -494.9,1438.1 -101.7,133.5 -219.4,254.5 -353.5,358.4 -496.3,384.4 -1149.6,494.4 -1776.2,533.7 -485.15,30.5 -978.28,24.4 -1459.52,-43 -6.03,8.2 -12.29,16.2 -18.87,24.1 -192.72,231.1 -485.99,266.4 -788.75,211.3 -292.62,257.4 -645.87,452.9 -1025.05,542.5 -115,27.2 -232.88,43.9 -351.34,50.2 -438.02,23 -884.22,-98.4 -1224.12,-372.9 -364.59,-294.5 -581.96,-732.9 -742.82,-1173.1 -160.86,-440.2 -277.72,-899.2 -495.18,-1314.3 -55.29,-105.6 -147.42,-223.1 -264.72,-202 270.34,-423.5 654.78,-753.7 1146.27,-877.3 0.04,0 0.09,0 0.13,0 13.29,-3.3 26.65,-6.6 40.1,-9.6 182.86,-41.3 369.79,-55.5 557.4,-53.6 80.79,-110.4 202.61,-184.3 378.12,-200.7 108.08,-550.9 345.71,-1064.7 694.33,-1478.6 3.04,-98.2 19.28,-198.4 50.01,-298 156.84,-508.3 634.71,-818.1 1094.54,-726.3 V 12062 c -109.91,-23.4 -219.26,-51.6 -326.96,-85.3 -65.84,-19.8 -130.56,-42.5 -194.72,-66.6 -24.56,-8.5 -48.56,-17.7 -72.54,-27.6 -203.09,-82.2 -397.27,-187.1 -573.59,-317.4 -670.02,-495.5 -881.85,-1277.9 -925.5,-2133.8 1.52,0.6 3.09,1.1 4.72,1.5 31.68,7.9 58.3,-25.6 68.22,-56.7 11.62,-36.4 4.68,-77.4 25.23,-107.4 25.84,36.7 65.79,64.3 112.41,62 2.22,-0.1 4.43,-0.4 6.66,-0.6 44.16,-5 84.46,-37 98.75,-79.2 39.23,18.4 87.99,14.6 123.9,-9.6 15.78,-10.7 29.55,-25.1 47.64,-31.1 22.7,-7.4 47.35,0 71.22,-0.8 48.18,-1.6 84.89,-42.4 94.08,-87.5 22.37,53.4 79.23,97.2 132.5,108.4 30.12,6.4 64.51,4 87.31,-16.7 13.84,-12.5 21.73,-30.3 27.86,-47.9 16.72,-48.2 23.11,-99.9 18.62,-150.7 17.61,41.1 82.83,38.1 112.43,4.5 29.6,-33.5 33.24,-82 34.99,-126.7 41.08,-1.3 78.78,-35 84.66,-75.6 28.86,15.8 66.57,4.3 90.53,-18.3 22.68,-21.3 38.04,-52.2 48.52,-81.2 71.86,77.2 171.46,-15.7 181.94,-94.5 1.27,51 33.99,109.2 85.04,108.5 37.09,-0.6 66.39,-32.2 83.43,-65.2 30.23,-58.4 35.92,-128.9 16.75,-191.8 226.26,-96.4 359.21,-214.2 359.21,-341.3 v 0 c 0,-9.2 -0.73,-18.3 -2.1,-27.3 l -13.22,-172.3 -143.28,-1867.2 -7.99,-104 -38.74,-504.9 h 2065.24 l 306.05,1289.7 359,1513.5 c 5.8,24.4 13.4,47.9 22.5,70.6 20.6,51.1 49.3,97.5 84.4,138 91.1,105 225.2,169.6 371.6,169.6 h 3645.8 c -154,184.4 -366.5,337.8 -548,479.7"
         style="fill:#f9a97f;fill-opacity:1;fill-rule:nonzero;stroke:none"
         id="path88" />
      <path
         d="m 12532.1,9252.8 c 0,1.5 0,3.1 -0.1,4.7 -2.8,0.3 -5.5,0.8 -8.3,1.7 3.9,-1.3 6.6,-3.5 8.4,-6.4"
         style="fill:#f03a61;fill-opacity:1;fill-rule:nonzero;stroke:none"
         id="path90" />
      <path
         d="m 12357.1,9072.4 c -45,-63.1 -93.9,-123.3 -146.3,-180.4 -16.2,-28.8 -38.6,-50.9 -65.2,-67.6 -68.1,-67.1 -141.1,-129.1 -218.4,-185.3 h 599.6 c 7.1,196.9 10.2,393.4 6,587.1 -8.1,-31.3 -36.2,-74.1 -42.4,-83.5 -28.2,-43 -82.4,-54.2 -133.3,-70.3"
         style="fill:#f03a61;fill-opacity:1;fill-rule:nonzero;stroke:none"
         id="path92" />
      <path
         d="m 5891.26,9376.1 c 11.62,-36.4 4.68,-77.4 25.23,-107.4 25.84,36.7 65.79,64.3 112.41,62 2.22,-0.1 4.43,-0.4 6.66,-0.6 -35.77,613.5 60.6,1225 412.2,1646.4 95.52,114.5 209.62,217.7 347.31,274.9 125.55,52.1 265.34,63.5 400.58,49.7 608.99,-62.3 943.28,-600.7 1230.6,-1082.1 326.1,-546.3 540.41,-1153.6 684.97,-1771.5 346.39,199.9 674.93,430.9 980.18,689.4 47.6,40.3 96.7,82.9 147.1,125.5 -2.8,83.5 2.6,167.1 26.8,247.1 15,49.6 33.3,98.3 54.5,145.9 3.7,8.4 7.5,16.8 11.4,25.1 67.5,143.9 160.8,277.9 267.2,398.3 -0.1,49.8 20.7,100 60.7,130.2 -38.1,64.2 -61.3,147.6 -23.6,212.1 30.1,51.2 110.9,65.3 153,32.9 -17.9,58.3 36.6,139 105.1,142.6 83.7,4.5 153.9,-65.3 191.5,-140.2 -47,93.5 93.1,188.1 171.4,134.9 -35.7,52.1 -60.4,99 -57,164.6 3.1,61.5 34,129.9 93.8,144.3 36,8.6 74.8,-5.1 102.8,-29.2 28.1,-24.1 46.7,-57.4 60.6,-91.7 -19,49.1 22.3,108.7 74.7,114.8 52.3,6.2 103.5,-34.9 116.4,-85.9 -2.5,38.6 35.5,71.9 74.2,72.9 38.7,1 74.6,-23.8 96.6,-55.6 21.7,-31.4 31.5,-69.3 42.3,-104.9 44.1,21.8 100.3,55.6 151.8,48.4 23,-3.2 144.5,-102 117.9,-110.2 60.8,18.8 128,-3 174.6,-45.3 -141.9,372.7 -364.2,699.3 -705.3,951.6 -60.6,44.8 -123.3,86.5 -187.7,125.4 -123.1,74.3 -252.6,138 -385.9,192 -24,9.9 -48,19.1 -72.5,27.6 -51.1,19.2 -102.5,37.4 -154.5,54.1 -78.6,-15.6 -158.4,-26.6 -238.8,-33.6 v -157.9 c 36,-36.8 69.6,-75 100.3,-114.3 19,-24.1 36.9,-48.7 53.7,-73.7 209.3,-305.6 264.6,-656.5 138,-903.3 -111.7,-217.7 -340.3,-314.7 -551.1,-357.8 -118.3,-24.1 -230.9,-31.3 -314.17,-33.4 -37.09,-0.9 -68.36,-0.8 -91.67,-0.7 -1128.16,3.5 -1879.28,1298.8 -1983.93,1483.2 v 289.3 c -109.91,-23.4 -219.26,-51.6 -326.96,-85.3 -65.84,-19.8 -130.56,-42.5 -194.72,-66.6 -24.56,-8.5 -48.56,-17.7 -72.54,-27.6 -203.09,-82.2 -397.27,-187.1 -573.59,-317.4 -670.02,-495.5 -881.85,-1277.9 -925.5,-2133.8 1.52,0.6 3.09,1.1 4.72,1.5 31.68,7.9 58.3,-25.6 68.22,-56.7"
         style="fill:#f03a61;fill-opacity:1;fill-rule:nonzero;stroke:none"
         id="path94" />
      <path
         d="m 9510.34,6373.8 c -270.75,-188.9 -566.62,-427.5 -887.4,-514.4 -357.42,-96.9 -689.12,-52.5 -954.59,103.2 l -38.74,-504.9 h 2065.24 l 306.05,1289.7 c -157.33,-130.2 -320.35,-254.9 -490.56,-373.6"
         style="fill:#f03a61;fill-opacity:1;fill-rule:nonzero;stroke:none"
         id="path96" />
      <path
         d="m 10764.3,10246.7 c 18.7,17.2 38.6,34.1 59.4,49.7 83.6,62.5 197.9,-26.4 155.4,-121.8 -17.1,-38.2 -36,-76 -52.4,-114.1 -48.7,-113.2 -82.6,-243.2 -80.1,-367.1 202.6,106.5 369.5,361 472.9,558.6 56.1,107.1 100.3,220.4 130.8,337.3 14.4,55.1 31.6,171.3 138.7,91.8 47.2,-35.1 70.5,-83.8 82,-119.8 47.9,-149.6 -4.9,-323.9 -14.3,-354 -75.1,-239.3 -200,-376.1 -190.4,-383.2 9.7,-7.1 143.9,129.8 248.7,319.1 65.3,117.7 112.3,244.4 183.9,359 89,142.4 201.1,-26.2 187.5,-134 -17.6,-140.7 -75.2,-289.4 -133.1,-420.2 -26.3,-59.4 -73.7,-154.3 -106.5,-210.4 -29.3,-50.1 -61.1,-121.7 -105.4,-160.4 208.9,182.7 302.4,433.1 439.9,665.1 5.2,8.7 19.8,32.7 42.7,35.4 46.5,5.5 97.5,-81.7 117.8,-136.4 20.1,-54.1 36.2,-146.4 -60.1,-381.2 -42.1,-102.7 -111.2,-245.7 -224.3,-403.6 101.8,84.4 174.3,196.4 239.1,310.2 35.9,63.3 65.1,130.8 98.5,195.5 24.4,47.4 51.7,78.8 78.7,91.5 44.3,20.7 88,-8.6 117.9,-100.1 50.2,-153.5 5.9,-329.5 -57.5,-471.9 -1.9,-4.3 -3.9,-8.6 -5.8,-12.9 -47.4,-104.1 -105,-203.3 -171.2,-296.4 50.9,16.1 105.1,27.3 133.3,70.3 6.2,9.4 34.3,52.2 42.4,83.5 2.7,10.9 3.1,20.3 -0.7,26.6 -1.8,2.9 -4.5,5.1 -8.4,6.4 2.8,-0.9 5.5,-1.4 8.3,-1.7 35.6,-3.8 69.7,41.8 51.1,74.3 19.8,-9.2 45.8,-2.1 58.1,15.9 12.4,18.1 9.6,44.9 -6.2,60 61.4,-27.5 132.1,40.3 130.8,107.6 -1.3,67.3 -49.7,124.2 -101.2,167.5 42.7,55.2 87.2,129.8 51.1,189.6 -9.8,16.3 -25.6,31.3 -24.5,50.3 0.8,14.5 11.4,26.2 19.5,38.2 24.5,36.9 27,87.4 6,126.4 -20.9,39 -64.3,65 -108.6,64.9 36.1,84.6 33,185.1 -8.5,267.3 -19.7,39.1 -49.2,75.3 -89.4,92.6 -46.8,20.2 -95,-25.6 -127.1,-14.2 -27.8,9.9 -32.2,59.5 -50.9,85.5 -7.9,10.8 -17,20.9 -27,30.1 -46.6,42.3 -113.8,64.1 -174.6,45.3 26.6,8.2 -94.9,107 -117.9,110.2 -51.5,7.2 -107.7,-26.6 -151.8,-48.4 -10.8,35.6 -20.6,73.5 -42.3,104.9 -22,31.8 -57.9,56.6 -96.6,55.6 -38.7,-1 -76.7,-34.3 -74.2,-72.9 -12.9,51 -64.1,92.1 -116.4,85.9 -52.4,-6.1 -93.7,-65.7 -74.7,-114.8 -13.9,34.3 -32.5,67.6 -60.6,91.7 -28,24.1 -66.8,37.8 -102.8,29.2 -59.8,-14.4 -90.7,-82.8 -93.8,-144.3 -3.4,-65.6 21.3,-112.5 57,-164.6 -78.3,53.2 -218.4,-41.4 -171.4,-134.9 -37.6,74.9 -107.8,144.7 -191.5,140.2 -68.5,-3.6 -123,-84.3 -105.1,-142.6 -42.1,32.4 -122.9,18.3 -153,-32.9 -37.7,-64.5 -14.5,-147.9 23.6,-212.1 -40,-30.2 -60.8,-80.4 -60.7,-130.2 52.6,59.4 108.4,115.6 165.9,167.9"
         style="fill:#f0ce6c;fill-opacity:1;fill-rule:nonzero;stroke:none"
         id="path98" />
      <path
         d="m 17210.9,5457.7 -414.4,-1747 c -23.2,-97.8 -74.9,-183 -144.9,-247.7 -88.6,-81.7 -206.5,-130.6 -333.8,-130.6 h -1036.4 l 1052.7,-657.2 c 66.6,-41.6 39.8,-73.3 -66.2,-76.1 l -3171.1,-82.9 c -178.4,-4.6 -411.6,54.2 -472.9,118.7 l -102.4,108 c -64.7,68.1 -128.5,137.6 -192.5,206.9 -83.4,90.3 -167,180.5 -253.3,267.5 h -1.1 c -23,23.3 -45.7,46.9 -69.2,69.6 -0.3,0.4 -0.7,0.8 -1.1,1.1 -6.7,6.5 -13,13.3 -18.9,20.4 -1.9,2.3 -3.8,4.7 -5.6,7.1 -0.8,1.1 -1.6,2.2 -2.4,3.3 -2.4,3.3 -4.6,6.6 -6.8,10 -0.7,1.2 -1.4,2.4 -2.2,3.6 h -1855.2 c -3.7,0 -7.5,0 -11.2,0.1 h -289.36 c -37.78,0 -74.37,4.2 -109.41,12.1 -7.02,1.6 -13.96,3.4 -20.84,5.2 -6.87,1.9 -13.69,3.9 -20.44,6.1 -6.74,2.2 -13.43,4.5 -20.04,6.9 -2.68,1 -5.36,2 -8.03,3.1 -3.62,1.4 -7.21,2.8 -10.79,4.3 -2.98,1.2 -5.93,2.5 -8.86,3.8 -2.75,1.2 -5.48,2.4 -8.19,3.7 -2.08,1 -4.15,1.9 -6.21,2.9 -8.25,4 -16.37,8.2 -24.34,12.6 -3.98,2.2 -7.94,4.4 -11.86,6.7 -1.96,1.2 -3.9,2.4 -5.84,3.5 -3.88,2.4 -7.72,4.8 -11.53,7.3 -0.92,0.6 -1.82,1.2 -2.73,1.8 -0.98,0.6 -1.97,1.3 -2.95,1.9 -3.77,2.5 -7.5,5.1 -11.18,7.7 -11.08,7.8 -21.8,16.1 -32.16,24.8 -3.45,2.9 -6.86,5.8 -10.23,8.8 -3.36,3 -6.69,6 -9.98,9.1 -4.92,4.6 -9.75,9.3 -14.48,14.1 -3.14,3.2 -6.25,6.5 -9.31,9.7 -3.06,3.3 -6.09,6.7 -9.05,10 -4.46,5.1 -8.81,10.2 -13.07,15.4 -1.41,1.8 -2.81,3.5 -4.2,5.3 -41.76,52.8 -72.79,114.1 -90.19,180.3 -1.15,4.4 -2.26,8.8 -3.3,13.3 -1.48,6.3 -2.81,12.6 -4.03,19 -0.51,2.6 -0.99,5.3 -1.45,7.9 -1.14,6.5 -2.14,13.1 -3.01,19.7 -0.34,2.5 -0.67,5.1 -0.97,7.7 -0.27,2.3 -0.52,4.6 -0.75,6.9 -0.47,4.6 -0.88,9.2 -1.21,13.9 -0.67,9.3 -1.08,18.6 -1.22,28 -0.59,39.9 3.71,80.7 13.44,121.7 l 212.65,896.3 147.97,623.7 H 7629.61 l -113.13,-1474.4 -35.65,-464.4 c 0,-343.8 -617.07,-627.4 -1413.92,-668.2 -65.02,-3.3 -131.23,-5.1 -198.41,-5.1 -734.77,0 -1354.7,205.3 -1549.04,485.9 -0.19,0.3 -0.37,0.6 -0.55,0.8 -4.34,6.3 -8.46,12.6 -12.36,19 -0.36,0.6 -0.72,1.2 -1.09,1.8 -1.89,3.1 -3.74,6.2 -5.53,9.4 -0.14,0.2 -0.27,0.4 -0.4,0.7 -1.1,1.9 -2.19,3.8 -3.24,5.8 -0.09,0.1 -0.17,0.3 -0.25,0.5 -2.18,4 -4.27,8 -6.27,12 -0.04,0.1 -0.07,0.1 -0.11,0.2 -0.82,1.7 -1.6,3.3 -2.39,5 -0.35,0.7 -0.7,1.4 -1.06,2.2 -0.74,1.6 -1.48,3.2 -2.2,4.8 -0.35,0.8 -0.69,1.5 -1.03,2.3 -2.23,5 -4.32,10.1 -6.26,15.2 -0.44,1.1 -0.88,2.2 -1.3,3.4 -0.5,1.3 -0.99,2.6 -1.47,4 -0.43,1.2 -0.84,2.4 -1.26,3.6 -0.41,1.2 -0.84,2.4 -1.25,3.6 -0.56,1.8 -1.1,3.5 -1.64,5.2 -0.46,1.4 -0.91,2.9 -1.35,4.4 -0.5,1.7 -0.99,3.4 -1.46,5 -0.28,1.1 -0.56,2.1 -0.84,3.2 -0.42,1.5 -0.81,3.1 -1.21,4.7 -0.25,0.9 -0.49,1.9 -0.73,2.9 -0.43,1.8 -0.85,3.7 -1.23,5.5 -0.17,0.7 -0.36,1.5 -0.53,2.3 -0.51,2.4 -1,4.9 -1.45,7.4 -0.15,0.8 -0.3,1.6 -0.44,2.5 -0.31,1.8 -0.62,3.5 -0.9,5.3 -0.15,1 -0.29,1.9 -0.43,2.8 -0.27,1.9 -0.52,3.7 -0.75,5.6 l -0.29,2.2 c -0.31,2.6 -0.58,5.1 -0.82,7.7 -0.05,0.6 -0.08,1.2 -0.14,1.7 -0.18,2.1 -0.34,4.2 -0.47,6.2 -0.05,0.9 -0.1,1.7 -0.15,2.6 -0.09,1.8 -0.17,3.7 -0.25,5.5 -0.02,0.9 -0.06,1.7 -0.08,2.6 -0.08,2.6 -0.12,5.2 -0.12,7.8 l -5.33,69.4 -143.45,1869.4 H 1743.67 c 2.83,-10.1 5.72,-20 8.63,-30 0.29,-1 0.56,-2 0.85,-3 0.51,-1.7 1.02,-3.4 1.53,-5.1 0.41,-1.4 0.84,-2.8 1.25,-4.2 2.34,-7.9 4.68,-15.7 7.07,-23.6 0.14,-0.5 0.29,-1 0.43,-1.4 0.09,-0.3 0.19,-0.6 0.28,-0.9 0.81,-2.7 1.66,-5.4 2.48,-8 2.24,-7.3 4.48,-14.5 6.76,-21.7 0.09,-0.3 0.19,-0.7 0.29,-1 0.68,-2.1 1.38,-4.3 2.07,-6.5 0.43,-1.3 0.87,-2.7 1.31,-4 2.35,-7.4 4.72,-14.8 7.13,-22.1 0.34,-1.1 0.67,-2.1 1.01,-3.2 0.08,-0.2 0.15,-0.4 0.22,-0.7 0.77,-2.3 1.57,-4.6 2.33,-6.9 2.43,-7.3 4.87,-14.7 7.35,-22 0.04,-0.1 0.08,-0.2 0.12,-0.3 0.93,-2.8 1.86,-5.5 2.79,-8.2 0.24,-0.7 0.48,-1.4 0.72,-2.1 2.51,-7.3 5.05,-14.7 7.61,-22 0.47,-1.3 0.93,-2.7 1.41,-4.1 0.14,-0.4 0.28,-0.8 0.42,-1.2 0.6,-1.7 1.22,-3.4 1.82,-5 2.66,-7.5 5.35,-15 8.05,-22.5 0.17,-0.5 0.33,-0.9 0.5,-1.4 0.56,-1.6 1.13,-3.1 1.71,-4.7 0.4,-1.1 0.82,-2.2 1.23,-3.4 2.97,-8.1 5.97,-16.2 9.01,-24.3 0.89,-2.4 1.77,-4.8 2.67,-7.1 3.32,-8.9 6.7,-17.7 10.1,-26.5 0.08,-0.2 0.15,-0.4 0.22,-0.6 0.64,-1.6 1.27,-3.2 1.9,-4.9 0.25,-0.6 0.5,-1.2 0.75,-1.9 3.47,-8.9 6.97,-17.8 10.52,-26.7 0.12,-0.3 0.25,-0.6 0.38,-0.9 0.3,-0.8 0.6,-1.5 0.9,-2.3 3.9,-9.7 7.86,-19.4 11.84,-29.1 0.76,-1.9 1.53,-3.8 2.31,-5.6 3.21,-7.8 6.47,-15.5 9.73,-23.3 1.79,-4.2 3.57,-8.4 5.37,-12.6 3.35,-7.9 6.71,-15.7 10.12,-23.5 0.74,-1.7 1.48,-3.4 2.23,-5.1 3.77,-8.6 7.58,-17.2 11.42,-25.8 0.96,-2.1 1.93,-4.3 2.9,-6.5 4.11,-9.1 8.26,-18.3 12.46,-27.4 0.59,-1.2 1.16,-2.5 1.74,-3.7 9.36,-20.3 18.91,-40.4 28.65,-60.5 0.17,-0.3 0.33,-0.7 0.49,-1 0.09,-0.2 0.18,-0.4 0.28,-0.6 0.15,-0.3 0.31,-0.6 0.47,-0.9 4.91,-10.1 9.85,-20.1 14.85,-30.2 0.05,-0.1 0.08,-0.1 0.13,-0.2 5.11,-10.3 10.27,-20.5 15.47,-30.6 l 0.19,-0.4 0.51,-1 c 1.42,-2.8 2.87,-5.6 4.31,-8.3 2.73,-5.3 5.46,-10.6 8.21,-15.9 0.01,0 0.03,-0.1 0.04,-0.1 6.9,-13.2 13.89,-26.4 20.96,-39.5 1.91,-3.6 3.82,-7.1 5.73,-10.6 2.69,-5 5.37,-9.9 8.09,-14.9 1.51,-2.7 3.03,-5.5 4.55,-8.2 487.02,-882.2 1364.45,-1588.4 2476.54,-2118.7 0.58,-0.2 1.18,-0.5 1.77,-0.8 25.65,-12.2 51.44,-24.4 77.34,-36.4 6.05,-2.8 12.11,-5.6 18.18,-8.4 6.29,-2.9 12.56,-5.8 18.86,-8.7 11.43,-5.3 22.91,-10.5 34.39,-15.7 4.7,-2.1 9.41,-4.3 14.11,-6.4 13.03,-5.9 26.07,-11.8 39.16,-17.6 0.78,-0.4 1.57,-0.7 2.36,-1.1 12.05,-5.3 24.11,-10.7 36.21,-16 1.12,-0.5 2.23,-1 3.35,-1.5 11.39,-5 22.8,-10 34.24,-15 4.61,-2 9.23,-4 13.85,-6 6.39,-2.8 12.79,-5.6 19.18,-8.3 12.7,-5.5 25.41,-10.9 38.16,-16.4 1.91,-0.8 3.82,-1.6 5.73,-2.4 8.18,-3.5 16.38,-7 24.58,-10.4 1.63,-0.7 3.26,-1.4 4.89,-2.1 11.65,-4.9 23.33,-9.8 35.02,-14.7 9.22,-3.8 18.45,-7.6 27.7,-11.5 2.13,-0.8 4.26,-1.7 6.4,-2.6 11.04,-4.6 22.1,-9.1 33.17,-13.6 0.04,0 0.08,-0.1 0.11,-0.1 1307.34,-533.8 2877.32,-850.1 4495.77,-948.8 0.37,0 0.75,0 1.11,0 47.33,-2.9 94.69,-5.6 142.09,-8.1 1.18,-0.1 2.33,-0.2 3.5,-0.2 14.88,-0.8 29.78,-1.6 44.67,-2.3 2.66,-0.1 5.31,-0.3 7.97,-0.4 42.91,-2.1 85.85,-4.1 128.82,-6 5.65,-0.2 11.29,-0.4 16.94,-0.7 12.73,-0.5 25.47,-1 38.22,-1.5 5.45,-0.2 10.89,-0.5 16.35,-0.7 27.11,-1 54.23,-2 81.36,-2.9 1.51,-0.1 3.01,-0.1 4.52,-0.2 11,-0.4 22.04,-0.7 33.04,-1.1 8.2,-0.2 16.4,-0.5 24.6,-0.8 10.8,-0.3 21.5,-0.6 32.3,-0.9 8.5,-0.3 17.1,-0.5 25.6,-0.7 15,-0.5 29.9,-0.9 44.8,-1.2 12.1,-0.3 24.1,-0.6 36.1,-0.9 9.7,-0.2 19.4,-0.4 29.1,-0.6 10.2,-0.3 20.4,-0.5 30.5,-0.7 9,-0.2 17.9,-0.3 26.9,-0.5 11.2,-0.2 22.5,-0.4 33.7,-0.6 11.5,-0.2 23.1,-0.4 34.7,-0.5 14.1,-0.2 28.3,-0.4 42.4,-0.6 8.6,-0.1 17.2,-0.2 25.8,-0.3 11.1,-0.1 22.1,-0.2 33.2,-0.3 8.4,-0.1 16.8,-0.2 25.1,-0.2 15.2,-0.2 30.3,-0.3 45.5,-0.3 3.9,-0.1 7.8,-0.1 11.8,-0.1 19.1,-0.1 38.2,-0.1 57.3,-0.2 6.1,0 12.2,0 18.3,0 13.9,0 27.9,0 41.8,0 6.6,0 13.1,0.1 19.7,0.1 19.3,0 38.6,0.1 57.9,0.2 0.9,0 1.9,0 2.9,0 15.7,0.1 31.5,0.3 47.3,0.4 1.6,0 3.2,0 4.8,0 15.7,0.2 31.5,0.3 47.3,0.5 0.9,0 1.7,0 2.6,0.1 16.1,0.1 32.1,0.4 48.2,0.6 1.1,0 2.1,0 3.2,0 15.8,0.3 31.6,0.5 47.4,0.8 1.3,0 2.6,0 3.9,0.1 16.1,0.2 32.3,0.5 48.4,0.9 0.7,0 1.4,0 2.1,0 42.6,0.9 85.2,1.9 127.8,3 42.6,1.2 85.2,2.5 127.7,3.9 0.3,0.1 0.6,0.1 0.9,0.1 16.2,0.5 32.5,1.1 48.7,1.7 2.4,0.1 4.9,0.2 7.3,0.3 13.8,0.5 27.6,1 41.4,1.6 4.2,0.1 8.4,0.3 12.6,0.5 12.7,0.5 25.4,1 38.1,1.6 3.7,0.1 7.4,0.3 11.1,0.4 13.3,0.6 26.6,1.2 39.9,1.8 3.4,0.2 6.7,0.3 10,0.5 13.2,0.6 26.3,1.2 39.5,1.8 4,0.2 8,0.4 12,0.6 12.2,0.6 24.2,1.2 36.4,1.8 4.9,0.2 9.8,0.5 14.7,0.7 12.4,0.7 24.8,1.3 37.2,2 2.8,0.2 5.6,0.3 8.4,0.4 1.1,0.1 2.2,0.2 3.3,0.2 11.7,0.7 23.3,1.3 34.9,2 5.5,0.3 11,0.6 16.4,0.9 8.1,0.4 16.1,0.9 24.1,1.4 9.2,0.5 18.4,1.1 27.5,1.6 2.4,0.1 4.7,0.3 7,0.4 1664.3,100.4 3277.6,431 4607.2,991.6 0.7,0.3 1.4,0.6 2.2,0.9 11.7,4.9 23.3,9.9 34.9,14.8 1.2,0.5 2.4,1 3.5,1.5 11.4,4.9 22.8,9.8 34.2,14.7 1.2,0.5 2.4,1 3.5,1.5 11.1,4.8 22.2,9.6 33.3,14.4 2,0.9 4,1.8 6.1,2.7 10.5,4.6 20.9,9.2 31.4,13.8 2.1,1 4.2,1.9 6.4,2.9 10.1,4.5 20.3,9 30.4,13.5 3.2,1.4 6.3,2.8 9.4,4.2 9.3,4.2 18.5,8.3 27.7,12.5 4.1,1.8 8.2,3.7 12.2,5.5 8.4,3.8 16.8,7.6 25.1,11.4 6.1,2.8 12.2,5.7 18.3,8.5 6.2,2.8 12.5,5.7 18.7,8.6 12.5,5.8 25,11.6 37.5,17.5 2,0.9 4,1.8 6,2.8 10.8,5 21.5,10.1 32.3,15.2 2,1 4,1.9 6,2.9 10.5,5 21,10 31.5,15 2.7,1.4 5.5,2.7 8.2,4 10,4.8 20,9.6 29.9,14.5 2.2,1 4.3,2.1 6.5,3.1 10.6,5.2 21.1,10.4 31.6,15.5 l 5.1,2.5 c 10.9,5.4 21.7,10.8 32.5,16.1 1.7,0.9 3.4,1.7 5.1,2.6 11,5.5 22,11 32.9,16.6 1.1,0.5 2.2,1.1 3.3,1.6 11.8,6 23.6,12 35.4,18 0.2,0.1 0.4,0.2 0.6,0.3 16.1,8.3 32.1,16.6 48.1,24.9 1.5,0.8 3,1.6 4.6,2.3 15.7,8.2 31.3,16.5 47,24.7 1.4,0.8 2.9,1.6 4.4,2.4 15.9,8.4 31.8,16.9 47.7,25.5 0.4,0.2 0.8,0.4 1.3,0.7 83.3,44.9 165.1,91 245.2,138.1 1014.6,596.9 1765.8,1369.5 2098,2317.8 l 0.3,0.6 c 2.5,7.3 5,14.6 7.5,21.8 0.3,0.9 0.6,1.8 0.9,2.6 2.3,6.9 4.7,13.8 7,20.7 0.4,1.3 0.8,2.6 1.2,3.8 2.2,6.5 4.4,13 6.5,19.5 0.7,2.3 1.5,4.6 2.2,7 1.8,5.6 3.6,11.2 5.4,16.8 2.6,8 5.1,16 7.6,24.1 0.9,3.1 1.9,6.2 2.9,9.3 1.5,5.1 3.1,10.2 4.6,15.3 1.5,4.9 2.9,9.8 4.4,14.7 1.2,4.1 2.4,8.2 3.6,12.3 2.7,9.2 5.3,18.4 7.9,27.6 h -2258.6"
         style="fill:#a25236;fill-opacity:1;fill-rule:nonzero;stroke:none"
         id="path100" />
      <path
         d="m 6066.91,2850.7 c -65.02,-3.3 -131.23,-5.1 -198.41,-5.1 -734.77,0 -1354.7,205.3 -1549.04,485.9 -0.19,0.3 -0.37,0.6 -0.55,0.8 -4.34,6.3 -8.46,12.6 -12.36,19 -0.36,0.6 -0.72,1.2 -1.09,1.8 -1.89,3.1 -3.74,6.2 -5.53,9.4 -0.14,0.2 -0.27,0.4 -0.4,0.7 -1.1,1.9 -2.19,3.8 -3.24,5.8 -0.09,0.1 -0.17,0.3 -0.25,0.5 -2.18,4 -4.27,8 -6.27,12 -0.04,0.1 -0.07,0.1 -0.11,0.2 -0.82,1.7 -1.6,3.3 -2.39,5 -0.35,0.7 -0.7,1.4 -1.06,2.2 -0.74,1.6 -1.48,3.2 -2.2,4.8 -0.35,0.8 -0.69,1.5 -1.03,2.3 -2.23,5 -4.32,10.1 -6.26,15.2 -0.44,1.1 -0.88,2.2 -1.3,3.4 -0.5,1.3 -0.99,2.6 -1.47,4 -0.43,1.2 -0.84,2.4 -1.26,3.6 -0.41,1.2 -0.84,2.4 -1.25,3.6 -0.56,1.8 -1.1,3.5 -1.64,5.2 -0.46,1.4 -0.91,2.9 -1.35,4.4 -0.5,1.7 -0.99,3.4 -1.46,5 -0.28,1.1 -0.56,2.1 -0.84,3.2 -0.42,1.5 -0.81,3.1 -1.21,4.7 -0.25,0.9 -0.49,1.9 -0.73,2.9 -0.43,1.8 -0.85,3.7 -1.23,5.5 -0.17,0.7 -0.36,1.5 -0.53,2.3 -0.51,2.4 -1,4.9 -1.45,7.4 -0.15,0.8 -0.3,1.6 -0.44,2.5 -0.31,1.8 -0.62,3.5 -0.9,5.3 -0.15,1 -0.29,1.9 -0.43,2.8 -0.27,1.9 -0.52,3.7 -0.75,5.6 l -0.29,2.2 c -0.31,2.6 -0.58,5.1 -0.82,7.7 -0.05,0.6 -0.08,1.2 -0.14,1.7 -0.18,2.1 -0.34,4.2 -0.47,6.2 -0.05,0.9 -0.1,1.7 -0.15,2.6 -0.09,1.8 -0.17,3.7 -0.25,5.5 -0.02,0.9 -0.06,1.7 -0.08,2.6 -0.08,2.6 -0.12,5.2 -0.12,7.8 l -5.33,69.4 c -63.25,-68.7 -97.32,-141.8 -97.32,-217.6 0,-392.7 915.03,-713.3 2064.64,-732 35.26,-0.6 70.72,-0.9 106.4,-0.9 1199.04,0 2171.04,328.1 2171.04,732.9 0,256.2 -389.32,481.6 -979.11,612.6 l -35.65,-464.4 c 0,-343.8 -617.07,-627.4 -1413.92,-668.2"
         style="fill:#804029;fill-opacity:1;fill-rule:nonzero;stroke:none"
         id="path102" />
      <path
         d="m 16651.6,3463 c -88.6,-81.7 -206.5,-130.6 -333.8,-130.6 h -1036.4 l 1052.7,-657.2 c 66.6,-41.6 39.8,-73.3 -66.2,-76.1 l -3171.1,-82.9 c -178.4,-4.6 -411.6,54.2 -472.9,118.7 l -102.4,108 c -64.7,68.1 -128.5,137.6 -192.5,206.9 -83.4,90.3 -167,180.5 -253.3,267.5 h -1.1 c -23,23.3 -45.7,46.9 -69.2,69.6 -0.3,0.4 -0.7,0.8 -1.1,1.1 -6.7,6.5 -13,13.3 -18.9,20.4 -1.9,2.3 -3.8,4.7 -5.6,7.1 -0.8,1.1 -1.6,2.2 -2.4,3.3 -2.4,3.3 -4.6,6.6 -6.8,10 -0.7,1.2 -1.4,2.4 -2.2,3.6 h -1855.2 c -3.7,0 -7.5,0 -11.2,0.1 h -289.36 c -37.78,0 -74.37,4.2 -109.41,12.1 -7.02,1.6 -13.96,3.4 -20.84,5.2 -6.87,1.9 -13.69,3.9 -20.44,6.1 -6.74,2.2 -13.43,4.5 -20.04,6.9 -2.68,1 -5.36,2 -8.03,3.1 -3.62,1.4 -7.21,2.8 -10.79,4.3 -2.98,1.2 -5.93,2.5 -8.86,3.8 -2.75,1.2 -5.48,2.4 -8.19,3.7 -2.08,1 -4.15,1.9 -6.21,2.9 -8.25,4 -16.37,8.2 -24.34,12.6 -3.98,2.2 -7.94,4.4 -11.86,6.7 -1.96,1.2 -3.9,2.4 -5.84,3.5 -3.88,2.4 -7.72,4.8 -11.53,7.3 -0.92,0.6 -1.82,1.2 -2.73,1.8 L 11022,1992.3 l 567.1,-544.7 v -0.1 c 1.1,0.1 2.2,0.2 3.3,0.2 11.7,0.7 23.3,1.3 34.9,2 5.5,0.3 11,0.6 16.4,0.9 8.1,0.4 16.1,0.9 24.1,1.4 9.2,0.5 18.4,1.1 27.5,1.6 2.4,0.1 4.7,0.3 7,0.4 1664.3,100.4 3277.6,431 4607.2,991.6 0.7,0.3 1.4,0.6 2.2,0.9 11.7,4.9 23.3,9.9 34.9,14.8 1.2,0.5 2.4,1 3.5,1.5 11.4,4.9 22.8,9.8 34.2,14.7 1.2,0.5 2.4,1 3.5,1.5 11.1,4.8 22.2,9.6 33.3,14.4 2,0.9 4,1.8 6.1,2.7 10.5,4.6 20.9,9.2 31.4,13.8 2.1,1 4.2,1.9 6.4,2.9 10.1,4.5 20.3,9 30.4,13.5 3.2,1.4 6.3,2.8 9.4,4.2 9.3,4.2 18.5,8.3 27.7,12.5 4.1,1.8 8.2,3.7 12.2,5.5 8.4,3.8 16.8,7.6 25.1,11.4 6.1,2.8 12.2,5.7 18.3,8.5 6.2,2.8 12.5,5.7 18.7,8.6 12.5,5.8 25,11.6 37.5,17.5 2,0.9 4,1.8 6,2.8 10.8,5 21.5,10.1 32.3,15.2 2,1 4,1.9 6,2.9 10.5,5 21,10 31.5,15 2.7,1.4 5.5,2.7 8.2,4 10,4.8 20,9.6 29.9,14.5 2.2,1 4.3,2.1 6.5,3.1 10.6,5.2 21.1,10.4 31.6,15.5 l 5.1,2.5 c 10.9,5.4 21.7,10.8 32.5,16.1 1.7,0.9 3.4,1.7 5.1,2.6 11,5.5 22,11 32.9,16.6 1.1,0.5 2.2,1.1 3.3,1.6 11.8,6 23.6,12 35.4,18 0.2,0.1 0.4,0.2 0.6,0.3 16.1,8.3 32.1,16.6 48.1,24.9 1.5,0.8 3,1.6 4.6,2.3 15.7,8.2 31.3,16.5 47,24.7 1.4,0.8 2.9,1.6 4.4,2.4 15.9,8.4 31.8,16.9 47.7,25.5 0.4,0.2 0.8,0.4 1.3,0.7 83.3,44.9 165.1,91 245.2,138.1 l -657.9,519.2"
         style="fill:#804029;fill-opacity:1;fill-rule:nonzero;stroke:none"
         id="path104" />
      <path
         d="m 9327.95,3739.8 c -1.14,6.5 -2.14,13.1 -3.01,19.7 0.87,-6.6 1.87,-13.2 3.01,-19.7"
         style="fill:#e0c6b1;fill-opacity:1;fill-rule:nonzero;stroke:none"
         id="path106" />
      <path
         d="m 9336.73,3699.6 c -1.15,4.4 -2.26,8.8 -3.3,13.3 1.04,-4.5 2.15,-8.9 3.3,-13.3"
         style="fill:#e0c6b1;fill-opacity:1;fill-rule:nonzero;stroke:none"
         id="path108" />
      <path
         d="m 9323.22,3774.1 c -0.47,4.6 -0.88,9.2 -1.21,13.9 0.33,-4.7 0.74,-9.3 1.21,-13.9"
         style="fill:#e0c6b1;fill-opacity:1;fill-rule:nonzero;stroke:none"
         id="path110" />
      <path
         d="m 9333.43,3712.9 c -1.48,6.3 -2.81,12.6 -4.03,19 1.22,-6.4 2.55,-12.7 4.03,-19"
         style="fill:#e0c6b1;fill-opacity:1;fill-rule:nonzero;stroke:none"
         id="path112" />
      <path
         d="m 15192.7,3387.3 v 0 c 3.4,8.9 6.2,18.2 8.5,27.7 l 33.3,140.4 -33.4,-140.4 c -2.2,-9.5 -5.1,-18.8 -8.4,-27.7"
         style="fill:#867569;fill-opacity:1;fill-rule:nonzero;stroke:none"
         id="path114" />
      <path
         d="m 11946.6,3395.3 c 0.5,-1.6 1.1,-3.2 1.6,-4.8 v 0 c -0.5,1.6 -1.1,3.2 -1.6,4.8"
         style="fill:#867569;fill-opacity:1;fill-rule:nonzero;stroke:none"
         id="path116" />
      <path
         d="m 11985.4,3308.4 c 5.9,-7.1 12.2,-13.9 18.9,-20.4 0.4,-0.3 0.8,-0.7 1.1,-1.1 -0.3,0.4 -0.7,0.8 -1.1,1.1 -6.7,6.5 -13,13.3 -18.9,20.4"
         style="fill:#867569;fill-opacity:1;fill-rule:nonzero;stroke:none"
         id="path118" />
      <path
         d="m 11966.5,3335.7 c -2,3.5 -3.8,7 -5.5,10.6 1.7,-3.6 3.5,-7.1 5.5,-10.6"
         style="fill:#867569;fill-opacity:1;fill-rule:nonzero;stroke:none"
         id="path120" />
      <path
         d="m 11952.6,3368.7 c -1.5,5.3 -2.7,10.7 -3.6,16.2 0.9,-5.5 2.1,-10.9 3.6,-16.2"
         style="fill:#867569;fill-opacity:1;fill-rule:nonzero;stroke:none"
         id="path122" />
      <path
         d="m 17343.8,8639 h -289.9 c -3.6,0.1 -7.2,0.1 -10.9,0.1 h -6204.6 c -146.4,0 -280.5,-64.6 -371.6,-169.6 -35.1,-40.5 -63.8,-86.9 -84.4,-138 -9.1,-22.7 -16.7,-46.2 -22.5,-70.6 L 10000.9,6747.4 9694.85,5457.7 9546.88,4834 9334.23,3937.7 c -7.29,-30.7 -11.54,-61.4 -12.96,-91.6 -0.23,-5 -0.39,-10.1 -0.47,-15.1 -0.09,-5 -0.09,-10 -0.01,-15 0.14,-9.4 0.55,-18.7 1.22,-28 0.33,-4.7 0.74,-9.3 1.21,-13.9 0.23,-2.3 0.48,-4.6 0.75,-6.9 0.3,-2.6 0.63,-5.2 0.97,-7.7 0.87,-6.6 1.87,-13.2 3.01,-19.7 0.46,-2.6 0.94,-5.3 1.45,-7.9 1.22,-6.4 2.55,-12.7 4.03,-19 1.04,-4.5 2.15,-8.9 3.3,-13.3 17.4,-66.2 48.43,-127.5 90.19,-180.3 1.39,-1.8 2.79,-3.5 4.2,-5.3 4.26,-5.2 8.61,-10.3 13.07,-15.4 2.96,-3.3 5.99,-6.7 9.05,-10 3.06,-3.2 6.17,-6.5 9.31,-9.7 4.73,-4.8 9.56,-9.5 14.48,-14.1 3.29,-3.1 6.62,-6.1 9.98,-9.1 3.37,-3 6.78,-5.9 10.23,-8.8 10.36,-8.7 21.08,-17 32.16,-24.8 3.68,-2.6 7.41,-5.2 11.18,-7.7 0.98,-0.6 1.97,-1.3 2.95,-1.9 0.91,-0.6 1.81,-1.2 2.73,-1.8 3.81,-2.5 7.65,-4.9 11.53,-7.3 1.94,-1.1 3.88,-2.3 5.84,-3.5 3.92,-2.3 7.88,-4.5 11.86,-6.7 7.97,-4.4 16.09,-8.6 24.34,-12.6 2.06,-1 4.13,-1.9 6.21,-2.9 2.71,-1.3 5.44,-2.5 8.19,-3.7 2.93,-1.3 5.88,-2.6 8.86,-3.8 3.58,-1.5 7.17,-2.9 10.79,-4.3 2.67,-1.1 5.35,-2.1 8.03,-3.1 6.61,-2.4 13.3,-4.7 20.04,-6.9 6.75,-2.2 13.57,-4.2 20.44,-6.1 6.88,-1.8 13.82,-3.6 20.84,-5.2 35.04,-7.9 71.63,-12.1 109.41,-12.1 H 10102 c 3.7,-0.1 7.5,-0.1 11.2,-0.1 h 1855.2 c 0.8,-1.2 1.5,-2.4 2.2,-3.6 2.2,-3.4 4.4,-6.7 6.8,-10 0.8,-1.1 1.6,-2.2 2.4,-3.3 1.8,-2.4 3.7,-4.8 5.6,-7.1 5.9,-7.1 12.2,-13.9 18.9,-20.4 0.4,-0.3 0.8,-0.7 1.1,-1.1 23.5,-22.7 46.2,-46.3 69.2,-69.6 h 1.1 c 86.3,-87 169.9,-177.2 253.3,-267.5 64,-69.3 127.8,-138.8 192.5,-206.9 l 102.4,-108 c 61.3,-64.5 294.5,-123.3 472.9,-118.7 l 3171.1,82.9 c 106,2.8 132.8,34.5 66.2,76.1 l -1052.7,657.2 h 1036.4 c 127.3,0 245.2,48.9 333.8,130.6 70,64.7 121.7,149.9 144.9,247.7 l 414.4,1747 611.2,2576.3 c 73.2,308.9 -161.2,605 -478.3,605"
         style="fill:#c9b19e;fill-opacity:1;fill-rule:nonzero;stroke:none"
         id="path124" />
      <path
         d="m 10838.4,8639.1 c -146.4,0 -280.5,-64.6 -371.6,-169.6 -35.1,-40.5 -63.8,-86.9 -84.4,-138 -9.1,-22.7 -16.7,-46.2 -22.5,-70.6 L 10000.9,6747.4 9694.85,5457.7 9546.88,4834 9334.23,3937.7 c -9.73,-41 -14.03,-81.8 -13.44,-121.7 -0.59,39.9 3.72,80.7 13.45,121.7 l 7.41,31.2 h 300.64 l 118.86,501.1 234.29,987.7 385.36,1624.5 99.5,419.6 180.2,759.3 c 6,25.6 14.1,50.3 23.9,74 74.8,181.5 253.2,303.9 454.8,303.9 h 5914.7 c -3.6,0.1 -7.2,0.1 -10.9,0.1 h -6204.6"
         style="fill:#e0c6b1;fill-opacity:1;fill-rule:nonzero;stroke:none"
         id="path126" />
      <path
         d="m 9713.35,3538.3 c -78.98,110.4 -113.04,253.6 -78.45,399.5 l 7.39,31.1 h -300.64 l -7.41,-31.2 c -9.73,-41 -14.04,-81.8 -13.45,-121.7 0.14,-9.4 0.55,-18.7 1.22,-28 0.33,-4.7 0.74,-9.3 1.21,-13.9 0.23,-2.3 0.48,-4.6 0.75,-6.9 0.3,-2.6 0.63,-5.2 0.97,-7.7 0.87,-6.6 1.87,-13.2 3.01,-19.7 0.46,-2.6 0.94,-5.3 1.45,-7.9 1.22,-6.4 2.55,-12.7 4.03,-19 1.04,-4.5 2.15,-8.9 3.3,-13.3 17.4,-66.2 48.43,-127.5 90.19,-180.3 1.39,-1.8 2.79,-3.5 4.2,-5.3 4.26,-5.2 8.61,-10.3 13.07,-15.4 2.96,-3.3 5.99,-6.7 9.05,-10 3.06,-3.2 6.17,-6.5 9.31,-9.7 4.73,-4.8 9.56,-9.5 14.48,-14.1 3.29,-3.1 6.62,-6.1 9.98,-9.1 3.37,-3 6.78,-5.9 10.23,-8.8 10.36,-8.7 21.08,-17 32.16,-24.8 3.68,-2.6 7.41,-5.2 11.18,-7.7 0.98,-0.6 1.97,-1.3 2.95,-1.9 0.91,-0.6 1.81,-1.2 2.73,-1.8 3.81,-2.5 7.65,-4.9 11.53,-7.3 1.94,-1.1 3.88,-2.3 5.84,-3.5 3.92,-2.3 7.88,-4.5 11.86,-6.7 7.97,-4.4 16.09,-8.6 24.34,-12.6 2.06,-1 4.13,-1.9 6.21,-2.9 2.71,-1.3 5.44,-2.5 8.19,-3.7 2.93,-1.3 5.88,-2.6 8.86,-3.8 3.58,-1.5 7.17,-2.9 10.79,-4.3 2.67,-1.1 5.35,-2.1 8.03,-3.1 6.61,-2.4 13.3,-4.7 20.04,-6.9 6.75,-2.2 13.57,-4.2 20.44,-6.1 6.88,-1.8 13.82,-3.6 20.84,-5.2 35.04,-7.9 71.63,-12.1 109.41,-12.1 H 10102 c -162.55,3.6 -302.4,85.2 -388.65,205.8"
         style="fill:#f8dcc5;fill-opacity:1;fill-rule:nonzero;stroke:none"
         id="path128" />
      <path
         d="m 16334.1,2675.2 -1052.7,657.2 -0.3,0.1 -78.4,49 c -3.1,1.9 -6.5,3.9 -10,5.8 v 0 c 3.3,8.9 6.2,18.2 8.4,27.7 l 33.4,140.4 10.5,44.5 3.2,13.5 84.4,355.5 335.4,1414.2 c 6,25.3 7.5,50.4 5,74.6 -11.3,110.1 -104.3,200.8 -222.7,200.8 h -2824.5 c -68,0 -130.2,-30.6 -171.7,-80 -21.9,-26 -38,-57.3 -46.3,-92.1 l -6.8,-28.7 -75.2,-316.9 -277.9,-1171.9 -49.4,-208.3 -37.4,-157.6 -9.5,-39.8 -10.6,-44.8 c -3.7,-15.4 -5.6,-30.7 -6.1,-45.8 0,-2.2 -0.1,-4.3 -0.1,-6.5 v -0.1 c 0,-1.5 0.1,-3.1 0.1,-4.6 0.1,-3.1 0.2,-6.2 0.4,-9.3 0.1,-1.6 0.2,-3.1 0.3,-4.6 0.3,-2.6 0.5,-5.1 0.8,-7.6 0.5,-3.9 1.1,-7.8 1.7,-11.7 1.1,-6.1 2.4,-12.3 4,-18.3 1.3,-4.9 2.8,-9.8 4.5,-14.6 0.5,-1.6 1.1,-3.2 1.6,-4.8 v 0 c 0.3,-1.9 0.5,-3.7 0.8,-5.6 0.9,-5.5 2.1,-10.9 3.6,-16.2 0.3,-1.2 0.7,-2.5 1.1,-3.8 1.6,-5.1 3.5,-10.1 5.7,-14.9 0.5,-1.3 1,-2.5 1.6,-3.7 1.7,-3.6 3.5,-7.1 5.5,-10.6 0.6,-1.1 1.2,-2.1 1.9,-3.2 v -0.1 c 0.8,-1.2 1.5,-2.4 2.2,-3.6 2.2,-3.4 4.4,-6.7 6.8,-10 0.8,-1.1 1.6,-2.2 2.4,-3.3 1.8,-2.4 3.7,-4.8 5.6,-7.1 5.9,-7.1 12.2,-13.9 18.9,-20.4 0.4,-0.3 0.8,-0.7 1.1,-1.1 23.5,-22.7 46.2,-46.3 69.2,-69.6 h 1.1 c 86.3,-87 169.9,-177.2 253.3,-267.5 64,-69.3 127.8,-138.8 192.5,-206.9 l 102.4,-108 c 61.3,-64.5 294.5,-123.3 472.9,-118.7 l 3171.1,82.9 c 106,2.8 132.8,34.5 66.2,76.1"
         style="fill:#867569;fill-opacity:1;fill-rule:nonzero;stroke:none"
         id="path130" />
      <path
         d="m 15465.6,3217.3 -184.3,115.1 -0.2,0.1 -78.4,49 c -3.1,1.9 -6.5,3.9 -10,5.8 v 0 c 3.3,8.9 6.2,18.2 8.4,27.7 l 33.4,140.4 10.5,44.5 3.2,13.5 h -3284.7 l -2.4,-10.4 -9.5,-39.8 -10.6,-44.8 c -3.7,-15.4 -5.6,-30.7 -6.1,-45.8 0,-2.2 -0.1,-4.3 -0.1,-6.5 v -0.1 c 0,-1.5 0.1,-3.1 0.1,-4.6 0.1,-3.1 0.2,-6.2 0.4,-9.3 0.1,-1.6 0.2,-3.1 0.3,-4.6 0.3,-2.6 0.5,-5.1 0.8,-7.6 0.5,-3.9 1.1,-7.8 1.7,-11.7 1.1,-6.1 2.4,-12.3 4,-18.3 1.3,-4.9 2.8,-9.8 4.5,-14.6 0.5,-1.6 1.1,-3.2 1.6,-4.8 v 0 0 c 0.3,-1.9 0.5,-3.7 0.8,-5.6 0.9,-5.5 2.1,-10.9 3.6,-16.2 0.3,-1.2 0.7,-2.5 1.1,-3.8 1.6,-5.1 3.5,-10.1 5.7,-14.9 0.5,-1.3 1,-2.5 1.6,-3.7 1.7,-3.6 3.5,-7.1 5.5,-10.6 0.6,-1.1 1.2,-2.1 1.9,-3.2 v -0.1 c 0.8,-1.2 1.5,-2.4 2.2,-3.6 2.2,-3.4 4.4,-6.7 6.8,-10 0.8,-1.1 1.6,-2.2 2.4,-3.3 1.8,-2.4 3.7,-4.8 5.6,-7.1 5.9,-7.1 12.2,-13.9 18.9,-20.4 0.4,-0.3 0.8,-0.7 1.1,-1.1 23.5,-22.7 46.2,-46.3 69.2,-69.6 h 3391"
         style="fill:#685a50;fill-opacity:1;fill-rule:nonzero;stroke:none"
         id="path132" />
      <path
         d="m 10552.3,4685.9 183.1,771.8 402.9,1698.1 c 41.8,176.7 -92.2,346 -273.2,346 h -384.8 L 10380.8,7082.2 9995.44,5457.7 9761.15,4470 h 517.95 c 130.1,0 243,89.2 273.2,215.9"
         style="fill:#b5a08f;fill-opacity:1;fill-rule:nonzero;stroke:none"
         id="path134" />
      <path
         d="m 17306.3,8359 c -126.3,0 -228.7,-102.4 -228.7,-228.7 0,-126.2 102.4,-228.6 228.7,-228.6 112.8,0 206.5,81.7 225.2,189.1 2.2,12.8 3.4,26.1 3.4,39.5 0,2.5 0,5 -0.1,7.4 -3.9,122.9 -104.7,221.3 -228.5,221.3"
         style="fill:#958375;fill-opacity:1;fill-rule:nonzero;stroke:none"
         id="path136" />
      <path
         d="m 12945.7,16687.7 c -25.6,513.1 -186.9,1033.5 -494.9,1438.1 -101.7,133.5 -219.4,254.5 -353.5,358.4 -496.3,384.4 -1149.6,494.4 -1776.2,533.7 -485.15,30.5 -978.28,24.4 -1459.52,-43 -6.03,8.2 -12.29,16.2 -18.87,24.1 -192.72,231.1 -485.99,266.4 -788.75,211.3 -292.62,257.4 -645.87,452.9 -1025.05,542.5 -115,27.2 -232.88,43.9 -351.34,50.2 -438.02,23 -884.22,-98.4 -1224.12,-372.9 -364.59,-294.5 -581.96,-732.9 -742.82,-1173.1 -160.86,-440.2 -277.72,-899.2 -495.18,-1314.3 -55.29,-105.6 -147.42,-223.1 -264.72,-202 270.34,-423.5 654.78,-753.7 1146.27,-877.3 0.04,0 0.09,0 0.13,0 13.29,-3.3 26.65,-6.6 40.1,-9.6 182.86,-41.3 369.79,-55.5 557.4,-53.6 80.79,-110.4 202.61,-184.3 378.12,-200.7 108.08,-550.9 345.71,-1064.7 694.33,-1478.6 -4.11,133 16.06,262.3 57.4,381.1 10.05,94.6 60.9,184.2 131.3,252 102.35,140.3 242.64,249.1 411.99,307.1 8.06,2.7 16.18,5.4 24.37,7.9 119.39,36.9 241.43,45.4 360.01,29.2 9.98,1.1 19.99,2 30.01,2.9 71.65,6.3 144.19,8.3 211.28,15.6 183.44,20 365.32,41.5 548.35,52.4 33.35,32.5 64.48,64.8 92.99,95.7 249.18,270.3 433.9,580 557.89,912.7 131.79,353.8 194.94,733.7 193.88,1120.2 361.08,-757.8 1301.45,-1267.3 2135.45,-1249.7 260.1,5.5 530.5,63.9 729.9,231.1 6.8,5.7 13.5,11.4 19.9,17.2 44.4,-195.4 46.5,-393.7 33.9,-593 -12.5,-199.8 -39.9,-401.4 -53.5,-603.1 -1.5,-20.6 -2.7,-41.3 -3.8,-61.9 36.8,-8.5 72.9,-18.4 108.4,-29.9 0,0 30.7,-77.1 0,-199 0,0 -79.2,-9.2 -89.6,-133.2 -1.6,-19.8 -3.8,-47.7 -8.3,-80.5 13,-162.8 26.3,-323.1 32.1,-482.9 116.3,181.8 209.2,378.2 278.9,573.5 229.6,643.6 409.9,1319 375.8,2001.4"
         style="fill:#091018;fill-opacity:1;fill-rule:nonzero;stroke:none"
         id="path138" />
      <path
         d="m 6502.85,18348.7 c -262.18,-257.6 -483.95,-556.3 -656.41,-875.3 -124.98,-231.1 -290.79,-734.5 -287.29,-1161.9 0,0 0.01,0 0.01,0 1.63,-198.4 39.77,-380.5 135.47,-511.3 80.79,-110.4 202.61,-184.3 378.12,-200.7 -14.25,72.6 -26.23,145.9 -35.94,219.7 -4.21,32 -8.01,64.1 -11.36,96.3 -28.15,271.1 -17.45,547.9 32.25,816.7 0.01,0.1 0.02,0.1 0.02,0.1 62.61,338.5 187.11,664.2 374.03,949.2 76.84,117.2 164.22,227.4 262.18,328.9 253.01,262.2 567.19,459.8 899.35,609.5 246.77,111.2 502.83,196.3 764.74,259.7 165.8,40.1 333.94,71.5 503.56,95.3 -6.03,8.2 -12.29,16.2 -18.87,24.1 -192.72,231.1 -485.99,266.4 -788.75,211.3 -352.33,-64.1 -717.53,-250.6 -952.11,-393.2 -217.03,-131.8 -417.69,-290.3 -599,-468.4"
         style="fill:#f4d6c4;fill-opacity:1;fill-rule:nonzero;stroke:none"
         id="path140" />
      <path
         d="m 8499.6,12144.9 c 358.09,-317.4 811.3,-535.1 1321.03,-603 155.91,-20.8 310.27,-26.7 461.77,-18.8 39.6,2.1 79.1,5.1 118.4,9.1 106.4,10.7 211.1,28.3 313.7,52.5 -16.8,25 -34.7,49.6 -53.7,73.7 -30.7,39.3 -64.3,77.5 -100.3,114.3 v 157.9 c -93.6,-8.2 -188.2,-11 -282.7,-9.5 -253.2,4.2 -506.98,39.6 -745.24,87.3 l -11.9,2.3 c -156.55,32.4 -306.5,81.5 -448.43,145.2 -448.43,201 -816.73,547.2 -1059.37,967.7 -6.15,-2.1 -12.32,-4.1 -18.54,-6 -27.45,-8.5 -55.04,-15.4 -82.69,-21 v -178.5 c 143.52,-293.6 343.6,-556.6 587.97,-773.2"
         style="fill:#f68578;fill-opacity:1;fill-rule:nonzero;stroke:none"
         id="path142" />
      <path
         d="m 11315.5,15266.4 c 40.8,-20.8 85.6,-32 130,-43 123.6,-30.8 244.1,-51.8 369.7,-70.5 30.5,-4.5 62.4,-7.8 91.7,2 53.1,17.7 85.6,77.4 81.7,133.5 -3.5,50.9 -32.4,97.2 -71.3,130.2 l -12.5,9.9 c -109.5,80.7 -275.7,110.8 -406.6,132.9 -96.8,16.2 -200.8,18 -268.3,-65.6 -64.9,-80.5 11,-191.4 85.6,-229.4"
         style="fill:#091018;fill-opacity:1;fill-rule:nonzero;stroke:none"
         id="path144" />
      <path
         d="m 11469.9,14400 c 115,-15.3 220.7,65.5 236,180.5 15.4,115 -65.4,220.7 -180.4,236 -115,15.3 -220.7,-65.5 -236,-180.5 -15.4,-115 65.4,-220.6 180.4,-236"
         style="fill:#091018;fill-opacity:1;fill-rule:nonzero;stroke:none"
         id="path146" />
      <path
         d="m 10756.4,13568.3 c 36,-26.6 86.4,-35.4 129.9,-40.1 39.3,-4.3 79.8,-1 118.3,8.1 78.3,18.6 148,68.6 189.3,137.8 70.3,117.8 52.1,261.9 -33.1,366.8 -54.3,66.7 -129.2,110 -215.1,117.2 -43.7,3.7 -52.3,-65.8 -10.3,-76 69.6,-16.9 133.3,-63.5 170.4,-124.9 17.3,-28.5 29.6,-60.7 32.8,-94.1 1.4,-14.8 0.3,-29.4 -0.3,-44.2 -0.1,-0.4 -0.1,-0.7 -0.1,-1.1 0,-0.2 -0.1,-0.3 -0.1,-0.5 -1.2,-5.4 -1.9,-10.9 -3.1,-16.2 -13.8,-61.7 -51.2,-116.7 -112.3,-144.3 -33,-15 -69.1,-19.7 -105.1,-17.5 -42,2.6 -77.7,21.8 -117.5,32.7 -19,5.2 -41.4,0 -55.2,-14.6 -6.8,-7.3 -12.6,-15 -14.5,-25.1 -5.5,-27.3 4.3,-48 26,-64"
         style="fill:#f68578;fill-opacity:1;fill-rule:nonzero;stroke:none"
         id="path148" />
      <path
         d="m 9491.86,15449.9 c -11.27,-55.1 13.06,-118.6 63.35,-143.1 27.76,-13.6 59.78,-14.6 90.67,-14.1 26.57,0.4 52.93,0.9 79.17,1.6 99.14,2.8 196.49,8.2 296.55,19.4 45.5,5.1 91.4,10.2 134.6,25.5 78.9,27.8 168.9,127.7 115.1,216 -55.8,91.8 -159.2,103.8 -257.2,100.5 -132.71,-4.6 -301.42,-12.5 -420.58,-78 l -1.42,-0.8 -12.33,-7.3 c -42.93,-27.6 -77.7,-69.7 -87.91,-119.7"
         style="fill:#091018;fill-opacity:1;fill-rule:nonzero;stroke:none"
         id="path150" />
      <path
         d="m 9859.48,14421.5 c 5.25,-1.1 10.58,-2 15.98,-2.8 24.59,-3.2 48.74,-2.1 71.68,2.8 22.52,4.8 43.87,13.3 63.26,24.8 53.4,31.7 92.2,86.6 101.1,152.9 15.3,115 -65.5,220.7 -180.5,236 -11.28,1.5 -22.47,2.1 -33.49,1.8 -101.37,-2.7 -188.68,-78.6 -202.51,-182.3 -14.61,-109.6 58.08,-210.7 164.48,-233.2"
         style="fill:#091018;fill-opacity:1;fill-rule:nonzero;stroke:none"
         id="path152" />
      <path
         d="m 10120.5,13595.3 c 14.7,-43.2 38.2,-84.5 67.7,-121.6 40.8,-51.6 92.9,-95.2 148.8,-124.8 52.6,-27.8 110.7,-43 169.3,-50.6 18.1,-2.4 36.1,-3.8 54.2,-3.4 12.7,0.3 25.4,1.5 38.2,4.1 29.8,6 68.9,27.5 85.7,52.8 16.1,24.5 4.3,58.4 -19.1,72.9 -10.9,6.7 -20.7,8.9 -33.4,10.4 -1.9,0.3 -4.6,0.6 -5.5,0.7 -14.9,2.6 -28.3,6.8 -43.9,7.6 -7.3,0.3 -14.7,0.4 -22,0.3 -15.9,-0.1 -31.7,-0.7 -47.6,0.3 l -13.3,1.1 c -1.7,0.2 -3,0.3 -4,0.3 -0.9,0.2 -1.9,0.4 -3,0.5 -11,1.9 -21.9,4 -32.7,6.6 -22.8,5.5 -44.7,13.1 -66.5,21.6 -29.4,11.6 -73.5,32.1 -102.1,56.6 -34,29 -62.5,62.9 -86.5,100.2 -9.5,14.7 -24.8,21 -40,20.9 -28.1,-0.2 -55.7,-22.9 -44.3,-56.5"
         style="fill:#f68578;fill-opacity:1;fill-rule:nonzero;stroke:none"
         id="path154" />
      <path
         d="m 9506.4,15035.4 c 51.46,0.7 107.37,0 165.45,-2.1 52.21,-1.9 106.23,-4.9 160.77,-8.9 113.91,-8.5 230.08,-21.5 336.88,-39.4 153.6,-25.9 288.4,-61.7 371.9,-109.4 54.9,-31.3 88.6,-69.1 88.6,-113.4 l -0.4,-7.7 c -6.4,-72.2 -8.7,-172.2 -43.6,-269.6 -7.7,-21.2 -17,-42.5 -28.3,-63.4 -24.7,-45.6 -58.9,-89.5 -106.9,-128.3 -6.1,-5.4 -12.2,-11 -18.5,-16.1 -42.4,-33.8 -94.3,-60.8 -150.4,-82 -56.7,-20.9 -117.6,-36 -179.9,-46.3 -7.5,-1.1 -15,-2.2 -22.5,-3.3 -56,-7.7 -112.75,-12.4 -170.27,-14.7 l 2.06,0.2 c -94.71,-5.6 -186.44,2.5 -275.84,22.6 -90.48,20 -175.66,54.5 -245.13,101.6 -69.08,46.4 -121.83,104 -156.2,166.3 -0.74,1.3 -1.47,2.7 -2.19,4 -12.45,23.8 -22.31,48.2 -30.72,72.8 -15.71,37.9 -27.96,79.8 -35.56,125.9 -0.87,3.1 -16.09,51.7 -16.09,115.5 0,59.9 13.46,132.7 65.87,192.1 51.96,58.5 142.98,102.3 290.97,103.6 z m 1712,-176.6 c 48.3,27 115,47.4 190.2,62.2 147.6,29.3 327.5,37.3 473.9,32 38.2,-1.4 74.2,-3.7 106.9,-6.9 91.3,-8.4 145.4,-46.4 175.7,-93.2 30.2,-46.6 37.8,-102 37.8,-147.1 0,-48.1 -8.6,-84.7 -9.1,-87 -4.4,-34.8 -11.4,-66.4 -20.3,-95.5 -5,-18.8 -10.7,-37.5 -17.9,-55.9 -20.1,-49.5 -51.8,-96.6 -94.3,-136 -42.7,-39.9 -96.3,-71.4 -154.8,-92.3 -59.4,-21.5 -122,-33.8 -188.6,-34.9 l 1.5,-0.1 c -47,-1.9 -94.3,-1.2 -141.8,3.2 -47.8,4.9 -95.4,14.4 -140.6,29.6 -45.7,15.6 -88.7,37.2 -124.3,66 -6.4,5 -12.2,10.4 -18,16 -30.2,25 -54.4,53.2 -73.5,83.2 -73.1,114.8 -74.1,253.3 -81.9,345.3 l -0.2,7.3 c 0,42.2 30.4,76.9 79.3,104.1 z m -3016.41,45.4 c 12.83,-10 25.46,-20.4 37.87,-31.1 1.53,-0.2 3.07,-0.4 4.6,-0.5 78.28,-8.7 156.76,-10.4 235.3,-9.3 h -0.03 0.5 c 78.89,1.1 157.83,4.9 236.67,7.2 53.52,1.6 109.24,5.8 164.21,15.1 35.86,-8.7 138.8,-45.3 154.31,-183.6 6.6,-57.9 16.88,-166.6 62.71,-280.5 86.69,-215.4 300.57,-449.4 857.39,-392.9 50.98,5.1 98.58,12.2 143.18,20.8 221.2,42.6 366.5,124 461.8,210.1 165.3,149.5 180.2,313.1 180.2,313.1 0,0 21.5,162.4 150.1,160.8 125.8,-1.5 146.3,-160 146.3,-160 0,0 40.1,-452.2 649.6,-459.2 196.9,-2.3 326,54.9 411,134.5 18.4,17.2 34.8,35.5 49.3,54.5 73.7,96.3 100.5,210 111.9,292.5 4.5,32.8 6.7,60.7 8.3,80.5 10.4,124 89.6,133.2 89.6,133.2 30.7,121.9 0,199 0,199 -35.5,11.5 -71.6,21.4 -108.4,29.9 -175.9,40.8 -365.5,49.7 -556.9,40.1 -110.7,-5.5 -223.5,-17.6 -336.5,-37.7 -42.9,-7.6 -86.8,-14.8 -128.5,-28.3 -80.6,-26.3 -164.4,-66.3 -255.1,-81 -106.8,-17.5 -203.2,11.9 -306.7,48.4 -45.8,16 -85.8,42.5 -131.9,60.1 -47.8,18.3 -99.1,30.1 -150.2,42.7 -138.8,33.9 -284.1,60.3 -433.99,80 -58.02,7.7 -117.06,14.4 -176.91,20.1 -266.86,25.1 -550.19,28 -834.21,-10.1 -19.45,0.7 -34.7,1.1 -43.02,1.4 -118.5,4.8 -235.83,2.1 -352.68,-4.9 -183.03,-10.9 -364.91,-32.4 -548.35,-52.4 -67.09,-7.3 -139.63,-9.3 -211.28,-15.6 -10.02,-0.9 -20.03,-1.8 -30.01,-2.9 9.7,-1.3 19.38,-2.8 29.03,-4.4 150.96,-25.9 295.45,-91.6 420.81,-189.6"
         style="fill:#091018;fill-opacity:1;fill-rule:nonzero;stroke:none"
         id="path156" />
      <path
         d="m 6842.22,14359.7 c 12.8,-34.3 72.57,-33.2 69.04,9.3 -13.28,159.7 82.28,322.4 240.16,368.4 56.8,16.5 114.62,18.8 170.9,10 72.27,-11.3 142.03,-41 203.82,-82.1 42.92,-28.7 82.01,-62.9 115.45,-100.4 22.16,-24.8 42.41,-51.4 60.96,-79.3 82.25,-123.6 130.5,-273.2 159.43,-416 35.17,-173.5 19.41,-352.7 -43.2,-518.3 -1.58,-4.1 -3.16,-8.3 -4.79,-12.4 -14.18,-36 9.08,-70.5 40.82,-86.3 17.97,-8.9 38.67,-11.9 56.82,-5.7 10.11,3.5 19.44,9.7 27.06,19.4 57.71,73.2 99.65,147.9 115.68,240.9 15.76,91.5 16.65,183.9 5.48,275.9 -18.34,151.1 -60.94,301.7 -129.58,438.4 -14.68,29.2 -30.54,57.9 -47.64,85.7 -43.27,70.5 -94.76,135.1 -154.33,190.4 -43.93,40.7 -92.28,76.4 -144.98,105.7 -30.12,16.7 -61.66,31.3 -94.63,43.6 -35.5,13.2 -72.47,23 -110.04,29.1 -129.08,21.2 -265.18,-1.1 -372.51,-79.6 -17.62,-12.9 -34.48,-27.1 -50.36,-42.4 -70.4,-67.8 -121.25,-157.4 -131.3,-252 -4.97,-46.9 0.06,-95 17.74,-142.3"
         style="fill:#f68578;fill-opacity:1;fill-rule:nonzero;stroke:none"
         id="path158" />
    </g>
  </g>
</svg>
